v 0.012246 -0.002514 -0.001365
v 0.009471 0.001627 -0.001319
v 0.008798 -0.000229 -0.001360
v 0.009796 -0.002069 -0.001329
v 0.010212 -0.002336 -0.000096
v 0.009999 0.002082 -0.000047
v 0.012271 0.002284 -0.000082
v 0.008723 -0.000342 -0.000066
v 0.009892 -0.000678 -0.003222
v 0.009821 -0.000212 -0.001392
v 0.011793 0.001556 -0.003223
v 0.011880 0.001486 -0.001393
v -0.008815 0.002340 -0.001308
v -0.008389 -0.002604 -0.001338
v -0.010248 0.000815 -0.001351
v -0.010235 -0.000951 -0.001315
v -0.007873 -0.002524 -0.000068
v -0.009841 -0.001723 -0.000043
v -0.009002 0.002210 -0.000059
v -0.010332 0.000687 -0.000077
v -0.007607 -0.001588 -0.003214
v -0.009411 -0.000466 -0.001383
v -0.009386 0.000709 -0.003213
v -0.007936 0.001484 -0.001383
v -0.020469 -0.010363 -0.004764
v -0.019157 -0.009848 -0.003209
v -0.019054 -0.009528 -0.004765
v -0.020332 -0.008614 -0.003209
v -0.020779 -0.008905 -0.004764
v 0.041854 -0.010712 -0.004794
v 0.042537 -0.009060 -0.003238
v 0.042347 -0.008956 -0.004794
v 0.011366 -0.014262 -0.003224
v 0.011841 -0.013225 -0.004780
v 0.011255 -0.012582 -0.003224
v 0.011732 0.012665 -0.003222
v 0.011919 0.013100 -0.004778
v 0.010722 0.014191 -0.003221
v 0.009870 0.013422 -0.004777
v 0.041885 0.008473 -0.003237
v 0.042445 0.008652 -0.004793
v 0.042963 0.009959 -0.003275
v 0.042156 0.010249 -0.004792
v -0.019701 0.008686 -0.003207
v -0.019936 0.008518 -0.004763
v -0.019351 0.010270 -0.003207
v -0.019280 0.010024 -0.004763
v -0.020741 0.010185 -0.004763
v -0.018606 0.006035 -0.008818
v -0.018169 0.007076 -0.008808
v -0.016183 0.007518 -0.009524
v -0.017328 0.007634 -0.009161
v -0.015330 0.006399 -0.009790
v -0.018631 -0.006144 -0.008819
v -0.016207 -0.004658 -0.009534
v -0.017904 -0.004715 -0.009001
v -0.015282 -0.006136 -0.009792
v -0.017168 -0.007718 -0.009211
v -0.015315 -0.006746 -0.008903
v -0.016090 -0.007449 -0.009551
v -0.016604 -0.004455 -0.008543
v -0.017146 0.004459 -0.009214
v -0.015290 0.005433 -0.008902
v -0.015758 0.004932 -0.009648
v -0.016580 0.007724 -0.008542
v -0.019258 -0.011162 -0.005309
v -0.018225 -0.009623 -0.005681
v -0.018194 -0.009069 -0.004308
v -0.019524 -0.007764 -0.005680
v 0.012673 -0.013336 -0.004337
v 0.012563 -0.012762 -0.005727
v 0.010844 -0.011454 -0.004322
v 0.009745 -0.011867 -0.005745
v 0.041669 -0.007750 -0.004336
v 0.042171 -0.007720 -0.005709
v 0.042455 -0.011412 -0.003343
v 0.043330 0.010780 -0.003360
v -0.002629 -0.014683 -0.003291
v 0.023953 -0.014781 -0.003314
v -0.002570 0.014588 -0.003289
v -0.021320 -0.010981 -0.003321
v 0.024101 0.014572 -0.003308
v 0.043401 -0.010154 -0.003340
v -0.021327 0.010927 -0.003319
v 0.043367 0.010873 -0.011853
v -0.016717 -0.011956 -0.009061
v -0.006038 -0.010279 -0.012295
v 0.043260 -0.011136 -0.011902
v -0.021160 0.009125 -0.008135
v -0.016647 0.011927 -0.009053
v -0.018229 0.005025 -0.008948
v -0.005922 0.010184 -0.012312
v -0.021796 -0.008940 -0.007833
v -0.018245 -0.007153 -0.008941
v -0.021497 0.011123 -0.006382
v -0.020541 -0.011575 -0.006866
v -0.021372 0.008674 -0.005580
v -0.021353 -0.008621 -0.006166
v -0.020549 -0.007767 -0.004307
v -0.020978 -0.010232 -0.005685
v -0.005570 -0.013626 -0.004314
v -0.019652 0.011134 -0.005689
v 0.040234 0.010541 -0.005707
v 0.042630 0.010287 -0.005708
v 0.042796 0.007868 -0.004793
v 0.040759 0.007849 -0.005707
v 0.027453 0.013472 -0.004328
v 0.040596 0.010758 -0.004334
v 0.042568 -0.010565 -0.005710
v 0.042562 -0.010483 -0.011169
v 0.027389 -0.013689 -0.004330
v 0.042642 0.010221 -0.011134
v -0.018694 0.010830 -0.004306
v -0.005515 0.013543 -0.004312
v -0.005782 -0.009824 -0.011460
v 0.009008 -0.013328 -0.004336
v 0.012622 0.012647 -0.005718
v 0.009854 0.011663 -0.005742
v 0.009275 0.012330 -0.004343
v -0.018042 0.004698 -0.008137
v -0.016002 0.011300 -0.008441
v -0.020301 0.009692 -0.007432
v -0.005646 0.009735 -0.011474
v -0.018373 -0.005313 -0.008051
v -0.018067 -0.007481 -0.008138
v -0.019703 -0.010251 -0.007651
v -0.015174 -0.011689 -0.008144
v 0.039953 -0.010490 -0.005708
v 0.039934 -0.010305 -0.004336
v 0.012245 0.011884 -0.004347
v 0.040166 0.008348 -0.004334
v -0.018997 0.007752 -0.004306
v -0.019491 0.007737 -0.005679
v -0.018187 0.009591 -0.005679
v -0.022030 -0.001632 -0.003207
v -0.021000 0.009504 -0.003207
v 0.012252 -0.001309 -0.003223
v 0.040904 0.009790 -0.003236
v 0.009895 -0.013292 -0.003223
v 0.040812 -0.009502 -0.003238
v -0.020704 -0.010256 -0.003209
v -0.006547 0.000738 -0.003214
v 0.041929 -0.010585 -0.003238
v 0.010054 0.012937 -0.003221
v 0.040826 0.009440 -0.004792
v 0.010063 -0.012858 -0.004779
v 0.010511 -0.014255 -0.004779
v 0.040996 -0.009206 -0.004794
v -0.006452 -0.000934 -0.001384
v -0.005362 0.000146 -0.000054
v -0.005991 -0.001677 -0.001341
v -0.005365 0.000465 -0.001321
v -0.006748 0.002266 -0.000053
v -0.006190 -0.001928 -0.000081
v -0.006787 0.002212 -0.001335
v 0.012052 -0.001541 -0.001393
v 0.013672 0.000820 -0.000078
v 0.013638 -0.001025 -0.000045
v 0.012237 -0.002449 -0.000079
v 0.013169 0.001640 -0.001319
v 0.011320 0.002464 -0.001338
v 0.013859 -0.000239 -0.001359
f 1 159 5
f 4 1 5
f 4 5 8
f 3 4 8
f 2 3 8
f 2 8 6
f 161 2 6
f 161 6 7
f 9 137 156
f 9 156 10
f 11 10 12
f 11 9 10
f 14 17 18
f 16 14 18
f 16 18 20
f 15 16 20
f 13 20 19
f 13 15 20
f 13 19 153
f 21 149 22
f 23 21 22
f 23 22 24
f 26 25 27
f 26 141 25
f 28 26 27
f 28 27 29
f 31 143 30
f 31 30 32
f 33 147 34
f 35 33 34
f 35 34 146
f 38 36 37
f 38 37 39
f 42 40 41
f 42 41 43
f 46 44 45
f 46 45 47
f 46 47 48
f 61 55 56
f 59 58 60
f 59 125 58
f 59 60 57
f 61 59 57
f 61 57 55
f 65 51 52
f 63 62 64
f 63 120 62
f 63 64 53
f 65 63 53
f 65 53 51
f 68 66 67
f 68 67 69
f 99 68 69
f 72 70 71
f 72 71 73
f 83 42 77
f 82 85 77
f 85 83 77
f 85 88 83
f 88 79 76
f 86 96 81
f 78 86 81
f 93 84 81
f 93 95 84
f 84 90 80
f 95 90 84
f 92 85 88
f 87 92 88
f 78 86 87
f 79 78 87
f 88 79 87
f 92 82 85
f 80 82 92
f 90 80 92
f 89 52 50
f 51 90 53
f 55 64 57
f 53 90 92
f 57 64 87
f 49 89 50
f 64 53 92
f 93 54 94
f 93 94 58
f 52 90 51
f 93 58 86
f 55 62 64
f 93 89 49
f 93 49 91
f 93 91 54
f 54 91 56
f 56 62 55
f 56 91 62
f 87 64 92
f 86 58 60
f 86 57 87
f 86 60 57
f 89 90 52
f 90 89 95
f 95 89 93
f 81 93 96
f 83 76 88
f 96 93 86
f 98 97 99
f 101 127 66
f 106 104 105
f 106 103 104
f 112 104 103
f 107 103 108
f 107 112 103
f 128 111 129
f 110 128 109
f 110 111 128
f 110 109 75
f 105 75 74
f 112 105 104
f 112 110 75
f 112 75 105
f 113 121 114
f 102 121 113
f 123 112 110
f 115 123 110
f 101 127 115
f 73 101 115
f 116 101 73
f 71 73 115
f 111 70 71
f 110 111 71
f 110 71 115
f 117 107 112
f 130 107 117
f 123 118 117
f 123 117 112
f 114 119 118
f 114 118 123
f 121 114 123
f 61 63 115
f 126 59 115
f 126 125 59
f 63 65 121
f 59 61 115
f 63 121 123
f 124 120 61
f 126 124 125
f 120 122 50
f 126 122 120
f 126 120 124
f 61 120 63
f 115 63 123
f 122 121 65
f 122 65 50
f 121 122 102
f 122 97 102
f 122 126 98
f 97 122 98
f 126 66 100
f 98 126 100
f 66 126 127
f 115 127 126
f 74 75 128
f 129 74 128
f 75 128 109
f 116 72 73
f 130 119 118
f 130 118 117
f 131 108 103
f 131 103 106
f 105 131 106
f 132 97 133
f 132 133 134
f 113 132 134
f 113 134 102
f 97 133 134
f 102 97 134
f 99 69 98
f 100 98 69
f 100 69 67
f 100 67 66
f 120 49 91
f 65 52 50
f 120 91 62
f 120 50 49
f 125 54 94
f 124 61 56
f 125 94 58
f 124 56 54
f 125 124 54
f 99 97 132
f 66 68 101
f 107 108 131
f 74 131 105
f 111 74 129
f 111 107 131
f 111 131 74
f 111 130 107
f 70 72 111
f 72 130 111
f 72 119 130
f 132 113 114
f 101 114 119
f 101 72 116
f 101 119 72
f 101 132 114
f 68 132 101
f 99 132 68
f 81 84 135
f 137 82 79
f 137 11 82
f 11 144 36
f 11 80 144
f 9 80 11
f 138 77 42
f 78 21 9
f 78 139 33
f 78 9 139
f 135 136 44
f 135 84 136
f 26 28 23
f 26 23 21
f 35 137 79
f 82 77 138
f 26 21 78
f 28 44 23
f 33 35 79
f 35 9 137
f 31 42 83
f 31 40 42
f 139 9 35
f 140 40 31
f 135 44 28
f 135 28 141
f 143 31 83
f 81 26 78
f 81 135 141
f 81 141 26
f 140 138 40
f 140 82 138
f 80 82 38
f 79 78 33
f 142 80 9
f 76 143 83
f 23 80 142
f 76 140 143
f 21 142 9
f 36 38 82
f 46 84 80
f 80 38 144
f 79 82 140
f 79 140 76
f 11 36 82
f 46 80 23
f 44 46 23
f 136 84 46
f 48 45 47
f 136 46 48
f 136 48 45
f 44 136 45
f 145 43 41
f 138 42 43
f 138 43 145
f 40 138 145
f 40 145 41
f 144 38 39
f 36 144 39
f 36 39 37
f 146 147 34
f 139 35 146
f 139 146 147
f 33 139 147
f 148 30 32
f 31 32 148
f 140 31 148
f 140 148 30
f 143 140 30
f 25 29 27
f 141 28 29
f 141 29 25
f 142 23 24
f 142 24 149
f 21 142 149
f 155 13 153
f 152 155 153
f 152 153 150
f 151 150 154
f 151 152 150
f 14 154 17
f 14 151 154
f 153 17 154
f 153 154 150
f 19 18 17
f 19 17 153
f 19 20 18
f 155 149 152
f 155 24 149
f 16 14 22
f 149 14 151
f 149 151 152
f 15 16 22
f 13 24 155
f 22 14 149
f 15 24 13
f 15 22 24
f 11 12 156
f 137 11 156
f 160 161 7
f 160 7 157
f 162 160 157
f 162 157 158
f 1 158 159
f 1 162 158
f 7 158 157
f 7 159 158
f 6 5 159
f 6 159 7
f 6 8 5
f 3 10 12
f 10 4 156
f 2 3 12
f 160 12 162
f 161 12 160
f 3 4 10
f 156 1 162
f 12 156 162
f 2 12 161
f 4 1 156
