v 0.000676 -0.010134 -0.039393
v 0.000702 -0.008773 -0.039330
v -0.002772 -0.013261 -0.041300
v -0.000780 -0.005244 -0.041716
v 0.002474 -0.005652 -0.044807
v -0.000059 -0.006696 -0.039283
v -0.005386 -0.012578 -0.046184
v -0.006146 -0.005551 -0.044208
v 0.002993 -0.012739 -0.046815
v -0.002335 -0.012347 -0.050102
v -0.000893 -0.005247 -0.049574
v -0.000073 -0.012176 -0.039662
v -0.001164 -0.009509 -0.017864
v -0.000068 -0.011325 -0.018593
v 0.000765 -0.009411 -0.020623
v 0.000048 -0.012491 0.009169
v -0.001909 -0.005436 -0.045999
v -0.002688 -0.012675 -0.047702
v 0.001076 -0.008963 -0.030364
v 0.002640 -0.011175 -0.022770
v -0.005879 -0.010565 0.006929
v 0.007912 -0.013032 0.005347
v 0.006212 -0.010644 0.002989
v 0.006590 -0.011174 -0.004496
v 0.004759 -0.010544 -0.017377
v 0.001106 -0.010792 -0.030449
v -0.000303 -0.011413 0.005721
v -0.000530 -0.011223 0.009177
v -0.001193 -0.010172 -0.019352
v -0.001535 -0.011321 -0.018158
v -0.005742 -0.012971 -0.020609
v -0.006185 -0.012904 0.007071
v -0.004868 -0.008909 0.009905
v 0.007874 -0.010037 0.006766
v -0.006701 -0.008851 -0.019339
v -0.002191 -0.008908 -0.024040
v -0.003848 -0.010879 -0.022393
v -0.003587 -0.004685 -0.012254
v 0.005087 -0.005574 0.004569
v -0.002550 -0.002349 -0.008690
v 0.002698 -0.004778 -0.012465
v -0.005755 -0.005367 0.004616
v -0.004844 -0.001933 -0.003074
v 0.003899 -0.001639 0.000080
v -0.001943 -0.002152 0.005959
v 0.001007 -0.001280 -0.006221
v 0.004647 -0.020741 -0.002843
v 0.004473 -0.020311 -0.011691
v 0.004679 -0.016758 -0.004265
v 0.004571 -0.020599 -0.006661
v 0.004132 -0.008040 -0.020260
v 0.004591 -0.017045 -0.008379
v 0.002888 -0.009235 -0.019856
v 0.004419 -0.020249 -0.014355
v 0.004512 -0.016804 -0.012416
v 0.005007 -0.022149 0.003156
v -0.005331 -0.009919 0.006909
v -0.001219 -0.010685 0.007703
v -0.002231 -0.010397 0.005860
v 0.001584 -0.010513 0.006297
v 0.004347 -0.010186 0.007961
v 0.000547 -0.009213 0.006155
v -0.001349 -0.009178 0.006089
v 0.004906 -0.009838 0.004843
v 0.000069 -0.009271 0.007573
v 0.000472 -0.008969 -0.018810
v -0.006067 -0.008327 -0.017568
v -0.001484 -0.009027 -0.019504
v -0.002529 -0.009330 -0.017582
v -0.005422 -0.009121 -0.019691
v 0.001799 -0.008467 -0.017903
v 0.002428 -0.023142 -0.016119
v -0.004369 -0.022952 -0.016526
v -0.003995 -0.021920 0.004158
v -0.001775 -0.023362 0.003096
v -0.005808 -0.022280 0.002675
v 0.002935 -0.022247 0.003570
v -0.006122 -0.022994 -0.017339
v 0.004568 -0.004750 -0.016515
v -0.006021 -0.004586 -0.016300
v -0.002239 -0.022208 0.004096
v 0.000461 -0.023020 0.004031
v -0.005932 -0.021877 0.004158
v -0.006206 -0.022920 -0.015526
v -0.001399 -0.023610 0.004367
v -0.001180 -0.023131 0.003753
v -0.001162 -0.022340 0.003767
v 0.004420 -0.023090 -0.017122
v -0.002043 -0.001528 0.000950
v -0.001289 -0.000944 -0.004994
v 0.000528 -0.001396 -0.001839
v -0.001180 -0.023131 0.003753
v 0.001046 0.001290 -0.000056
v -0.000775 0.001431 0.001613
v -0.001014 0.001440 -0.001070
v -0.000352 -0.002091 -0.000013
v -0.000281 -0.023073 0.003138
v -0.000879 -0.023560 0.004466
v -0.000708 -0.008857 0.005040
v -0.001479 -0.007790 0.007806
v -0.001239 -0.009347 0.006752
v 0.001397 -0.008537 0.006527
v -0.000383 -0.014960 0.006307
v -0.002268 -0.007352 -0.017749
v -0.000788 -0.007508 -0.019798
v 0.000835 -0.007199 -0.017670
v -0.000876 -0.013789 -0.018650
f 9 10 11
f 7 8 11
f 10 7 11
f 9 11 5
f 13 29 30
f 13 30 14
f 15 13 14
f 3 5 4
f 7 3 4
f 7 4 17
f 18 7 17
f 18 17 5
f 3 18 5
f 37 19 26
f 36 19 37
f 20 36 37
f 15 36 20
f 37 32 21
f 22 21 32
f 22 23 21
f 24 23 22
f 26 15 20
f 19 15 26
f 29 15 14
f 26 20 25
f 1 37 26
f 28 32 16
f 27 32 28
f 1 26 25
f 22 27 16
f 24 1 25
f 22 32 27
f 37 25 30
f 29 37 30
f 25 14 30
f 37 29 14
f 20 37 14
f 20 14 25
f 19 15 25
f 2 36 19
f 27 21 28
f 2 19 25
f 23 28 34
f 23 16 28
f 23 27 16
f 35 21 37
f 34 24 23
f 24 2 25
f 37 25 13
f 23 21 27
f 13 35 37
f 29 35 13
f 36 35 29
f 25 15 13
f 36 29 15
f 1 37 31
f 1 31 12
f 31 37 32
f 12 24 22
f 1 24 12
f 8 6 4
f 6 5 4
f 12 3 9
f 7 3 8
f 5 6 34
f 6 36 2
f 35 33 21
f 33 21 28
f 34 33 28
f 2 34 24
f 6 34 2
f 35 33 32
f 31 35 32
f 36 35 31
f 12 36 31
f 6 36 12
f 6 8 3
f 6 3 12
f 5 34 22
f 5 22 9
f 33 32 16
f 34 16 22
f 34 33 16
f 9 12 22
f 10 7 9
f 11 17 5
f 11 8 17
f 17 8 4
f 9 7 18
f 9 18 3
f 40 41 38
f 42 40 38
f 42 38 80
f 39 41 40
f 39 79 41
f 79 80 38
f 41 79 38
f 39 46 44
f 42 45 43
f 39 44 45
f 42 39 45
f 88 54 48
f 88 48 50
f 88 50 56
f 88 55 54
f 49 39 64
f 88 71 55
f 49 64 56
f 55 71 52
f 52 39 49
f 50 55 52
f 53 51 71
f 47 49 56
f 48 55 50
f 52 79 39
f 54 55 48
f 50 49 47
f 50 52 49
f 50 47 56
f 71 79 52
f 61 58 60
f 61 57 58
f 63 60 59
f 63 62 60
f 63 59 58
f 64 57 63
f 64 63 62
f 65 63 57
f 61 62 65
f 61 65 57
f 61 64 62
f 71 51 66
f 68 67 71
f 51 68 66
f 51 67 68
f 71 68 69
f 53 69 66
f 66 68 70
f 53 66 70
f 56 72 88
f 76 84 73
f 76 73 72
f 76 72 56
f 74 76 81
f 97 56 82
f 82 56 77
f 75 97 87
f 76 56 97
f 76 97 75
f 76 75 81
f 64 77 56
f 60 77 64
f 59 74 77
f 59 77 60
f 57 83 74
f 57 74 59
f 65 63 58
f 65 58 60
f 62 65 60
f 76 83 42
f 67 42 80
f 67 76 42
f 84 76 67
f 78 84 67
f 83 57 42
f 39 42 57
f 64 39 57
f 71 69 66
f 71 67 80
f 79 71 80
f 51 53 70
f 51 70 67
f 72 71 88
f 72 53 71
f 73 69 53
f 73 53 72
f 73 67 69
f 78 67 73
f 77 74 81
f 77 81 82
f 60 64 61
f 57 59 58
f 70 68 69
f 67 70 69
f 82 81 87
f 81 75 85
f 86 85 75
f 87 86 75
f 40 42 43
f 39 40 46
f 44 89 45
f 89 43 45
f 90 43 89
f 90 40 43
f 46 90 91
f 46 91 44
f 46 40 90
f 90 89 91
f 92 86 87
f 92 85 86
f 87 85 92
f 87 81 85
f 83 76 74
f 78 73 84
f 89 94 95
f 91 89 95
f 89 44 94
f 91 95 93
f 44 91 93
f 44 93 94
f 96 94 95
f 96 95 93
f 96 93 94
f 86 97 82
f 98 86 82
f 82 87 98
f 92 86 98
f 92 97 86
f 98 97 92
f 87 97 98
f 100 102 99
f 100 99 101
f 101 99 103
f 102 101 103
f 99 102 103
f 100 101 102
f 104 105 107
f 106 104 107
f 105 106 107
f 105 104 106
