v 0.000676 -0.010112 -0.039607
v 0.000702 -0.008751 -0.039544
v -0.002772 -0.013239 -0.041515
v -0.000780 -0.005222 -0.041930
v 0.002474 -0.005630 -0.045022
v -0.000059 -0.006674 -0.039497
v -0.005386 -0.012556 -0.046398
v -0.006146 -0.005529 -0.044422
v 0.002993 -0.012717 -0.047029
v -0.002335 -0.012325 -0.050317
v -0.000893 -0.005225 -0.049788
v -0.000073 -0.012154 -0.039876
v -0.001164 -0.009487 -0.018078
v -0.000068 -0.011303 -0.018807
v 0.000765 -0.009389 -0.020837
v 0.000048 -0.012469 0.008955
v -0.001909 -0.005414 -0.046214
v -0.002688 -0.012653 -0.047917
v 0.001076 -0.008941 -0.030579
v 0.002640 -0.011153 -0.022984
v -0.005879 -0.010543 0.006715
v 0.007912 -0.013010 0.005133
v 0.006212 -0.010622 0.002775
v 0.006590 -0.011152 -0.004711
v 0.004759 -0.010522 -0.017591
v 0.001106 -0.010770 -0.030663
v -0.000303 -0.011391 0.005507
v -0.000530 -0.011201 0.008962
v -0.001193 -0.010150 -0.019567
v -0.001535 -0.011299 -0.018372
v -0.005742 -0.012949 -0.020823
v -0.006185 -0.012882 0.006857
v -0.004868 -0.008887 0.009691
v 0.007874 -0.010015 0.006552
v -0.006701 -0.008829 -0.019554
v -0.002191 -0.008886 -0.024254
v -0.003848 -0.010857 -0.022607
v -0.003587 -0.004663 -0.012468
v 0.005087 -0.005552 0.004355
v -0.002550 -0.002327 -0.008905
v 0.002698 -0.004756 -0.012679
v -0.005755 -0.005345 0.004402
v -0.004844 -0.001911 -0.003288
v 0.003899 -0.001617 -0.000134
v -0.001943 -0.002130 0.005744
v 0.001007 -0.001258 -0.006435
v 0.004647 -0.020719 -0.003057
v 0.004473 -0.020289 -0.011906
v 0.004679 -0.016736 -0.004479
v 0.004571 -0.020577 -0.006876
v 0.004132 -0.008018 -0.020475
v 0.004591 -0.017023 -0.008593
v 0.002888 -0.009214 -0.020070
v 0.004419 -0.020227 -0.014570
v 0.004512 -0.016782 -0.012630
v 0.005007 -0.022127 0.002941
v -0.005331 -0.009897 0.006694
v -0.001219 -0.010663 0.007489
v -0.002231 -0.010375 0.005646
v 0.001584 -0.010491 0.006083
v 0.004347 -0.010164 0.007747
v 0.000547 -0.009191 0.005941
v -0.001349 -0.009157 0.005874
v 0.004906 -0.009816 0.004629
v 0.000069 -0.009249 0.007359
v 0.000472 -0.008947 -0.019024
v -0.006067 -0.008305 -0.017782
v -0.001484 -0.009005 -0.019718
v -0.002529 -0.009308 -0.017796
v -0.005422 -0.009099 -0.019906
v 0.001799 -0.008445 -0.018117
v 0.002428 -0.023120 -0.016333
v -0.004369 -0.022930 -0.016740
v -0.003995 -0.021898 0.003943
v -0.001775 -0.023340 0.002882
v -0.005808 -0.022258 0.002461
v 0.002935 -0.022225 0.003356
v -0.006122 -0.022972 -0.017553
v 0.004568 -0.004728 -0.016729
v -0.006021 -0.004564 -0.016514
v -0.002239 -0.022186 0.003882
v 0.000461 -0.022998 0.003817
v -0.005932 -0.021855 0.003943
v -0.006206 -0.022898 -0.015741
v -0.001399 -0.023588 0.004153
v -0.001180 -0.023109 0.003539
v -0.001162 -0.022318 0.003553
v 0.004420 -0.023068 -0.017336
v -0.002043 -0.001506 0.000736
v -0.001289 -0.000922 -0.005208
v 0.000528 -0.001374 -0.002053
v -0.001180 -0.023109 0.003539
v 0.001046 0.001312 -0.000270
v -0.000775 0.001453 0.001398
v -0.001014 0.001462 -0.001285
v -0.000352 -0.002069 -0.000227
v -0.000281 -0.023051 0.002924
v -0.000879 -0.023538 0.004251
v -0.000708 -0.008835 0.004825
v -0.001479 -0.007768 0.007592
v -0.001239 -0.009325 0.006538
v 0.001397 -0.008515 0.006313
v -0.000383 -0.014938 0.006092
v -0.002268 -0.007330 -0.017963
v -0.000788 -0.007486 -0.020012
v 0.000835 -0.007177 -0.017884
v -0.000876 -0.013767 -0.018865
f 9 10 11
f 7 8 11
f 10 7 11
f 9 11 5
f 13 29 30
f 13 30 14
f 15 13 14
f 3 5 4
f 7 3 4
f 7 4 17
f 18 7 17
f 18 17 5
f 3 18 5
f 37 19 26
f 36 19 37
f 20 36 37
f 15 36 20
f 37 32 21
f 22 21 32
f 22 23 21
f 24 23 22
f 26 15 20
f 19 15 26
f 29 15 14
f 26 20 25
f 1 37 26
f 28 32 16
f 27 32 28
f 1 26 25
f 22 27 16
f 24 1 25
f 22 32 27
f 37 25 30
f 29 37 30
f 25 14 30
f 37 29 14
f 20 37 14
f 20 14 25
f 19 15 25
f 2 36 19
f 27 21 28
f 2 19 25
f 23 28 34
f 23 16 28
f 23 27 16
f 35 21 37
f 34 24 23
f 24 2 25
f 37 25 13
f 23 21 27
f 13 35 37
f 29 35 13
f 36 35 29
f 25 15 13
f 36 29 15
f 1 37 31
f 1 31 12
f 31 37 32
f 12 24 22
f 1 24 12
f 8 6 4
f 6 5 4
f 12 3 9
f 7 3 8
f 5 6 34
f 6 36 2
f 35 33 21
f 33 21 28
f 34 33 28
f 2 34 24
f 6 34 2
f 35 33 32
f 31 35 32
f 36 35 31
f 12 36 31
f 6 36 12
f 6 8 3
f 6 3 12
f 5 34 22
f 5 22 9
f 33 32 16
f 34 16 22
f 34 33 16
f 9 12 22
f 10 7 9
f 11 17 5
f 11 8 17
f 17 8 4
f 9 7 18
f 9 18 3
f 40 41 38
f 42 40 38
f 42 38 80
f 39 41 40
f 39 79 41
f 79 80 38
f 41 79 38
f 39 46 44
f 42 45 43
f 39 44 45
f 42 39 45
f 88 54 48
f 88 48 50
f 88 50 56
f 88 55 54
f 49 39 64
f 88 71 55
f 49 64 56
f 55 71 52
f 52 39 49
f 50 55 52
f 53 51 71
f 47 49 56
f 48 55 50
f 52 79 39
f 54 55 48
f 50 49 47
f 50 52 49
f 50 47 56
f 71 79 52
f 61 58 60
f 61 57 58
f 63 60 59
f 63 62 60
f 63 59 58
f 64 57 63
f 64 63 62
f 65 63 57
f 61 62 65
f 61 65 57
f 61 64 62
f 71 51 66
f 68 67 71
f 51 68 66
f 51 67 68
f 71 68 69
f 53 69 66
f 66 68 70
f 53 66 70
f 56 72 88
f 76 84 73
f 76 73 72
f 76 72 56
f 74 76 81
f 97 56 82
f 82 56 77
f 75 97 87
f 76 56 97
f 76 97 75
f 76 75 81
f 64 77 56
f 60 77 64
f 59 74 77
f 59 77 60
f 57 83 74
f 57 74 59
f 65 63 58
f 65 58 60
f 62 65 60
f 76 83 42
f 67 42 80
f 67 76 42
f 84 76 67
f 78 84 67
f 83 57 42
f 39 42 57
f 64 39 57
f 71 69 66
f 71 67 80
f 79 71 80
f 51 53 70
f 51 70 67
f 72 71 88
f 72 53 71
f 73 69 53
f 73 53 72
f 73 67 69
f 78 67 73
f 77 74 81
f 77 81 82
f 60 64 61
f 57 59 58
f 70 68 69
f 67 70 69
f 82 81 87
f 81 75 85
f 86 85 75
f 87 86 75
f 40 42 43
f 39 40 46
f 44 89 45
f 89 43 45
f 90 43 89
f 90 40 43
f 46 90 91
f 46 91 44
f 46 40 90
f 90 89 91
f 92 86 87
f 92 85 86
f 87 85 92
f 87 81 85
f 83 76 74
f 78 73 84
f 89 94 95
f 91 89 95
f 89 44 94
f 91 95 93
f 44 91 93
f 44 93 94
f 96 94 95
f 96 95 93
f 96 93 94
f 86 97 82
f 98 86 82
f 82 87 98
f 92 86 98
f 92 97 86
f 98 97 92
f 87 97 98
f 100 102 99
f 100 99 101
f 101 99 103
f 102 101 103
f 99 102 103
f 100 101 102
f 104 105 107
f 106 104 107
f 105 106 107
f 105 104 106
