v 0.000333 0.000551 -0.013866
v -0.000070 0.000568 -0.010085
v 0.001581 0.000547 -0.010957
v 0.001773 0.000562 -0.012777
v -0.002778 0.000562 -0.013093
v 0.000838 0.000531 -0.009239
v -0.002443 0.000517 -0.010463
v -0.001145 0.000501 -0.009391
v 0.000219 0.001375 -0.013784
v -0.000982 0.000549 -0.013656
v -0.001301 0.001209 -0.013088
v -0.001888 0.000570 -0.011522
v -0.001699 0.001375 -0.011526
v -0.000901 0.001375 -0.010448
v 0.000707 0.001375 -0.010345
v -0.002429 0.001323 -0.010149
v 0.000863 0.001320 -0.009090
v -0.002213 0.002747 -0.006520
v -0.002027 0.002588 -0.007893
v 0.001459 0.002178 -0.006520
v 0.000039 0.009535 0.008331
v -0.001489 0.008658 0.008473
v 0.000343 0.004121 -0.034860
v 0.000007 0.006866 -0.034891
v 0.000343 0.006866 -0.034860
v 0.000007 0.004121 -0.034891
v 0.000668 0.004121 -0.034767
v 0.000668 0.006866 -0.034767
v 0.000970 0.004121 -0.034617
v 0.000970 0.006866 -0.034617
v 0.001240 0.004121 -0.034413
v 0.001240 0.006866 -0.034413
v 0.001467 0.004121 -0.034163
v 0.001467 0.006866 -0.034163
v 0.001645 0.004121 -0.033876
v 0.001645 0.006866 -0.033876
v 0.001767 0.004121 -0.033561
v 0.001767 0.006866 -0.033561
v 0.001829 0.004121 -0.033229
v 0.001829 0.006866 -0.033229
v 0.001829 0.004121 -0.032891
v 0.001829 0.006866 -0.032891
v 0.001767 0.004121 -0.032559
v 0.001767 0.006866 -0.032559
v 0.001645 0.004121 -0.032245
v 0.001645 0.006866 -0.032245
v 0.001467 0.004121 -0.031957
v 0.001467 0.006866 -0.031957
v 0.001240 0.006866 -0.031708
v 0.001240 0.004121 -0.031708
v 0.000970 0.006866 -0.031504
v 0.000825 0.004121 -0.031418
v 0.000668 0.006866 -0.031354
v 0.000343 0.004121 -0.031261
v 0.000343 0.006866 -0.031261
v 0.000007 0.006866 -0.031230
v 0.000007 0.004121 -0.031230
v 0.000007 0.004121 -0.013841
v 0.000007 0.001375 -0.013841
v -0.000330 0.001375 -0.013810
v -0.001193 0.004121 -0.013508
v -0.000654 0.001375 -0.013718
v -0.000957 0.001375 -0.013567
v -0.001226 0.001375 -0.013364
v -0.001454 0.001375 -0.013114
v -0.001632 0.001375 -0.012827
v -0.001754 0.001375 -0.012512
v -0.001754 0.004121 -0.012512
v -0.001816 0.001375 -0.012180
v -0.001816 0.004121 -0.012180
v -0.001816 0.001375 -0.011842
v -0.001816 0.004121 -0.011842
v -0.001754 0.001375 -0.011510
v -0.001754 0.004121 -0.011510
v -0.001632 0.001375 -0.011195
v -0.001632 0.004121 -0.011195
v -0.001454 0.001375 -0.010908
v -0.001454 0.004121 -0.010908
v -0.001226 0.001375 -0.010658
v -0.001076 0.004121 -0.010527
v -0.000957 0.001375 -0.010455
v -0.000654 0.001375 -0.010304
v -0.000654 0.004121 -0.010304
v -0.000330 0.001375 -0.010212
v -0.000330 0.004121 -0.010212
v 0.000007 0.001375 -0.010181
v 0.000007 0.004121 -0.010181
v 0.000398 0.004121 0.004321
v 0.003427 0.004121 0.002484
v 0.003896 0.004121 0.000344
v 0.000007 0.004121 0.009092
v 0.006468 0.001375 -0.036845
v 0.002295 0.001375 -0.037179
v 0.005135 0.001375 -0.032101
v -0.002281 0.001375 -0.037179
v 0.002295 0.001375 -0.038552
v -0.006461 0.001375 -0.036859
v -0.005110 0.001375 -0.032078
v -0.002281 0.001375 -0.038552
v 0.001897 0.002374 -0.007893
v 0.002295 0.004121 -0.006520
v 0.002295 0.004121 -0.007893
v -0.002281 0.004121 -0.006520
v -0.002281 0.004121 -0.007893
v -0.003125 0.001423 0.002885
v 0.003140 0.001429 0.002893
v 0.003919 0.001423 0.000870
v -0.004068 0.001332 -0.013989
v 0.006252 0.001368 -0.004372
v -0.004027 0.001322 -0.031338
v -0.003883 0.009612 -0.007893
v -0.007013 0.009337 -0.004655
v 0.003896 0.009612 -0.007893
v -0.003721 0.009612 0.001806
v 0.003530 0.009612 0.002503
v -0.000746 0.009612 0.004374
v 0.002295 0.006866 -0.007893
v 0.003513 0.006995 -0.007893
v 0.002281 0.008118 -0.006520
v 0.002295 0.006866 -0.006520
v -0.002281 0.006866 -0.006520
v -0.001084 0.008987 -0.006520
v -0.003277 0.007096 -0.007893
v -0.002281 0.006866 -0.007893
v 0.005231 0.004121 -0.031030
v 0.004249 0.004121 -0.025395
v 0.006474 0.004121 -0.036859
v 0.002295 0.004121 -0.037179
v -0.002281 0.004121 -0.037179
v -0.002281 0.004121 -0.038552
v 0.002295 0.004121 -0.038552
v -0.003145 0.004121 0.002931
v -0.003748 0.004121 0.006160
v -0.005570 0.004121 0.001900
v -0.003883 0.004121 -0.007893
v -0.003883 0.004121 0.000344
v -0.007260 0.004120 -0.005290
v 0.003896 0.004121 -0.007893
v 0.007273 0.004120 -0.005290
v -0.007315 0.004121 0.001717
v 0.003772 0.004121 0.006022
v 0.005626 0.004121 0.001815
v 0.007328 0.004121 0.001717
v -0.005218 0.004121 -0.014042
v 0.000343 0.004121 -0.010212
v 0.000668 0.004121 -0.010304
v 0.000970 0.004121 -0.010455
v 0.001240 0.004121 -0.010658
v 0.001467 0.004121 -0.010908
v 0.001645 0.004121 -0.011195
v -0.004235 0.004121 -0.019676
v 0.001829 0.004121 -0.011842
v 0.001829 0.004121 -0.012180
v 0.001767 0.004121 -0.011510
v 0.005231 0.004121 -0.014042
v 0.001240 0.004121 -0.013364
v 0.000825 0.004121 -0.013654
v 0.001467 0.004121 -0.013114
v 0.001645 0.004121 -0.012827
v 0.001767 0.004121 -0.012512
v 0.004249 0.004121 -0.019676
v 0.000343 0.004121 -0.013810
v -0.004235 0.004121 -0.025395
v -0.006455 0.004121 -0.036845
v -0.001194 0.004121 -0.031563
v -0.005218 0.004121 -0.031030
v -0.001754 0.004121 -0.032559
v -0.001816 0.004121 -0.032891
v -0.001816 0.004121 -0.033229
v -0.001754 0.004121 -0.033561
v -0.001632 0.004121 -0.033876
v -0.000330 0.004121 -0.034860
v -0.000655 0.004121 -0.034767
v -0.001076 0.004121 -0.034545
v -0.001454 0.004121 -0.034163
v 0.003925 0.000560 -0.022623
v 0.005929 0.000452 -0.010234
v 0.007305 0.002425 -0.003825
v 0.007328 0.006866 0.001717
v 0.007027 0.002013 0.003521
v 0.003896 0.006866 0.006621
v -0.003883 0.006866 0.006621
v -0.007053 0.002258 0.003601
v -0.007315 0.006866 0.001717
v -0.006087 0.000549 -0.009899
v -0.003900 0.001425 0.000908
v -0.003937 0.001416 -0.007935
v -0.001483 0.001432 0.004032
v 0.003951 0.001414 -0.007936
v 0.000343 0.001375 -0.010212
v 0.000668 0.001375 -0.010304
v 0.000970 0.001375 -0.010455
v 0.001240 0.001375 -0.010658
v 0.001467 0.001375 -0.010908
v 0.001645 0.001375 -0.011195
v 0.001767 0.001375 -0.011510
v 0.001829 0.001375 -0.011842
v 0.001829 0.001375 -0.012180
v 0.001767 0.001375 -0.012512
v 0.001645 0.001375 -0.012827
v 0.001467 0.001375 -0.013114
v 0.001240 0.001375 -0.013364
v 0.000970 0.001375 -0.013567
v 0.000668 0.001375 -0.013718
v 0.000343 0.001375 -0.013810
v 0.005108 0.006866 0.002583
v -0.005260 0.006866 0.002245
v 0.000007 0.006866 0.009092
v 0.000366 0.006866 0.004217
v -0.002868 0.006866 0.002964
v -0.003300 0.006866 0.002392
v 0.001071 0.006866 0.004085
v -0.002337 0.006866 0.003448
v 0.001741 0.006866 0.003826
v -0.005721 0.006866 -0.011325
v -0.001727 0.006866 0.003826
v -0.003883 0.006866 0.000344
v -0.007289 0.006866 -0.004930
v 0.007298 0.006866 -0.004990
v 0.003896 0.006866 0.000344
v -0.001058 0.006866 0.004085
v -0.000352 0.006866 0.004217
v 0.005683 0.006866 -0.011365
v 0.003830 0.006866 0.001059
v 0.003634 0.006866 0.001749
v 0.003314 0.006866 0.002392
v -0.003817 0.006866 0.001059
v 0.002881 0.006866 0.002964
v 0.002351 0.006866 0.003448
v -0.003620 0.006866 0.001749
v 0.007274 0.008665 -0.004791
v 0.005649 0.008486 -0.011368
v -0.005782 0.008261 -0.011358
v 0.000105 0.009035 -0.007893
v -0.000330 0.006866 -0.031261
v -0.000655 0.006866 -0.031354
v -0.000957 0.006866 -0.031504
v -0.001226 0.006866 -0.031708
v -0.001454 0.006866 -0.031957
v -0.001632 0.006866 -0.032245
v -0.001754 0.006866 -0.032559
v -0.001816 0.006866 -0.032891
v -0.001816 0.006866 -0.033229
v -0.001754 0.006866 -0.033561
v -0.001632 0.006866 -0.033876
v -0.001454 0.006866 -0.034163
v -0.001226 0.006866 -0.034413
v -0.000957 0.006866 -0.034617
v -0.000655 0.006866 -0.034767
v -0.000330 0.006866 -0.034860
v -0.005209 0.009539 -0.010556
v 0.005351 0.009538 -0.010400
v 0.006538 0.009533 -0.004561
v -0.006374 0.009549 0.003106
v 0.007100 0.008648 0.003568
v -0.007034 0.008760 0.003636
v 0.006344 0.009522 0.003457
v 0.000883 0.008995 0.008667
v 0.001666 0.001375 -0.012654
v 0.001088 0.001375 -0.013395
v 0.001688 0.001375 -0.011410
v -0.004143 0.000552 -0.031427
v 0.004152 0.000553 -0.031427
v -0.005329 0.000415 -0.010458
v 0.002527 0.000528 -0.013443
v 0.003427 0.000531 -0.017510
v 0.003145 0.001331 -0.018826
v 0.003094 0.001325 -0.025378
v 0.001058 0.001331 -0.031317
v 0.000954 0.000553 -0.031425
v 0.002882 0.001327 -0.013198
v -0.003099 0.001321 -0.019549
v -0.003088 0.001320 -0.025400
v -0.006129 0.001365 -0.004430
v -0.007259 0.001509 -0.004162
v -0.006887 0.001723 -0.002831
v -0.006417 0.001456 0.003233
v 0.001548 0.002325 0.008443
v 0.000187 0.001417 0.008125
v -0.001049 0.002156 0.008652
v 0.006144 0.001440 0.003671
v -0.003911 0.000559 -0.022606
v -0.004571 0.000543 -0.032320
v -0.005139 0.000536 -0.031351
v 0.004477 0.000533 -0.032351
v 0.005153 0.000551 -0.031444
v 0.007265 0.001464 -0.004348
v 0.006946 0.001748 -0.002812
v 0.003235 0.000550 -0.025430
v 0.000942 0.000547 -0.014943
v 0.002776 0.000572 -0.010898
v -0.000929 0.000548 -0.014942
v -0.000940 0.000552 -0.031425
v -0.003224 0.000549 -0.025437
v -0.003373 0.000543 -0.017701
v 0.004035 0.001322 -0.031342
v 0.001070 0.001329 -0.015008
v 0.002575 0.001301 -0.010379
v -0.002921 0.001295 -0.013058
v -0.000826 0.001328 -0.009122
v -0.001053 0.001328 -0.015009
v -0.001047 0.001331 -0.031319
v 0.000768 0.001425 0.004286
v -0.002778 0.007679 -0.031978
v 0.000836 0.007713 -0.035832
v -0.002443 0.007724 -0.034609
v -0.001148 0.007739 -0.035680
v 0.000137 0.007688 -0.031203
v 0.001354 0.007690 -0.031727
v -0.000070 0.007673 -0.034986
v 0.001553 0.007705 -0.034155
v 0.001713 0.007376 -0.032728
v -0.000158 0.006866 -0.031289
v -0.001248 0.007677 -0.031645
v -0.001404 0.006866 -0.031931
v -0.001870 0.007686 -0.033609
v -0.001755 0.006866 -0.033390
v -0.001154 0.006866 -0.034395
v 0.000057 0.006866 -0.034867
v -0.002429 0.006919 -0.034923
v -0.000271 0.006920 -0.036108
v -0.002213 0.005494 -0.038552
v -0.002027 0.005654 -0.037179
v 0.001459 0.006064 -0.038552
v 0.000039 -0.001294 -0.053402
v -0.001489 -0.000416 -0.053544
v -0.000382 0.004121 -0.049361
v 0.003196 0.004121 -0.048033
v 0.003896 0.004121 -0.045416
v 0.000007 0.004121 -0.054164
v 0.006468 0.006866 -0.008227
v 0.005135 0.006866 -0.012970
v -0.005110 0.006866 -0.012994
v -0.006461 0.006866 -0.008212
v 0.001897 0.005868 -0.037179
v -0.003125 0.006819 -0.047957
v 0.003140 0.006812 -0.047964
v 0.003919 0.006819 -0.045942
v -0.004068 0.006909 -0.031082
v 0.006145 0.006899 -0.040426
v -0.004027 0.006920 -0.013734
v -0.003883 -0.001370 -0.037179
v -0.006509 -0.001297 -0.040495
v 0.000387 -0.001371 -0.049520
v 0.003896 -0.001370 -0.037179
v -0.003599 -0.001370 -0.047334
v 0.003711 -0.001370 -0.046982
v 0.003575 0.001092 -0.037179
v 0.001617 -0.000577 -0.038552
v -0.002192 0.000022 -0.038552
v -0.001604 -0.000577 -0.037179
v 0.006474 0.004121 -0.008212
v -0.003279 0.004121 -0.047756
v -0.003748 0.004121 -0.051232
v -0.005570 0.004121 -0.046971
v -0.003883 0.004121 -0.037179
v -0.003883 0.004121 -0.045415
v -0.007260 0.004121 -0.039782
v 0.003896 0.004121 -0.037179
v 0.007273 0.004121 -0.039782
v -0.007315 0.004121 -0.046788
v 0.003772 0.004121 -0.051093
v 0.005626 0.004121 -0.046886
v 0.007328 0.004121 -0.046788
v -0.006455 0.004121 -0.008227
v 0.003925 0.007682 -0.022449
v 0.005929 0.007789 -0.034838
v 0.007305 0.005817 -0.041247
v 0.007328 0.001375 -0.046788
v 0.007026 0.006228 -0.048592
v 0.003896 0.001375 -0.051692
v -0.003883 0.001375 -0.051692
v -0.007053 0.005984 -0.048672
v -0.007315 0.001375 -0.046788
v -0.007258 -0.000453 -0.040375
v -0.006087 0.007692 -0.035172
v -0.003900 0.006817 -0.045979
v -0.003937 0.006826 -0.037136
v -0.001483 0.006809 -0.049104
v 0.003951 0.006827 -0.037136
v 0.005108 0.001375 -0.047655
v -0.005261 0.001375 -0.047316
v 0.000007 0.001375 -0.054164
v 0.000365 0.001375 -0.049288
v -0.002868 0.001375 -0.048036
v -0.003300 0.001375 -0.047463
v 0.001071 0.001375 -0.049157
v -0.002337 0.001375 -0.048519
v 0.001740 0.001375 -0.048897
v -0.005721 0.001375 -0.033747
v -0.001727 0.001375 -0.048897
v -0.003883 0.001375 -0.045415
v -0.003883 0.001375 -0.037179
v -0.007289 0.001375 -0.040141
v 0.007298 0.001375 -0.040082
v 0.003896 0.001375 -0.045416
v -0.001058 0.001375 -0.049157
v -0.000352 0.001375 -0.049288
v 0.005683 0.001375 -0.033707
v 0.003830 0.001375 -0.046130
v 0.003634 0.001375 -0.046821
v 0.003314 0.001375 -0.047463
v -0.003817 0.001375 -0.046130
v 0.002881 0.001375 -0.048036
v 0.002351 0.001375 -0.048519
v -0.003620 0.001375 -0.046820
v 0.007274 -0.000423 -0.040280
v 0.005649 -0.000244 -0.033703
v -0.005782 -0.000020 -0.033713
v -0.005209 -0.001297 -0.034516
v 0.005351 -0.001296 -0.034671
v 0.006538 -0.001291 -0.040510
v -0.006374 -0.001308 -0.048178
v 0.007100 -0.000407 -0.048640
v -0.007034 -0.000519 -0.048707
v 0.006344 -0.001280 -0.048528
v 0.000882 -0.000754 -0.053739
v 0.001520 0.006866 -0.032124
v 0.000791 0.006866 -0.031486
v 0.001357 0.006866 -0.034228
v -0.004143 0.007689 -0.013644
v 0.004152 0.007688 -0.013645
v -0.005330 0.007827 -0.034614
v 0.002527 0.007714 -0.031629
v 0.003427 0.007710 -0.027562
v 0.003094 0.006916 -0.019693
v 0.003110 0.006919 -0.025522
v 0.001058 0.006910 -0.013755
v 0.000954 0.007689 -0.013647
v 0.002882 0.006915 -0.031874
v -0.003099 0.006921 -0.025523
v -0.003088 0.006922 -0.019672
v -0.006129 0.006877 -0.040641
v -0.007259 0.006733 -0.040910
v -0.006887 0.006519 -0.042240
v -0.006417 0.006785 -0.048304
v 0.001548 0.005917 -0.053515
v 0.000187 0.006825 -0.053196
v -0.001049 0.006086 -0.053724
v 0.006144 0.006802 -0.048742
v -0.003911 0.007683 -0.022465
v -0.004571 0.007698 -0.012752
v -0.005139 0.007705 -0.013720
v 0.004257 0.007725 -0.012671
v 0.005117 0.007681 -0.013371
v 0.007265 0.006778 -0.040723
v 0.006946 0.006493 -0.042259
v 0.003235 0.007692 -0.019641
v 0.000942 0.007695 -0.030129
v 0.002776 0.007670 -0.034174
v -0.000929 0.007694 -0.030129
v -0.000940 0.007690 -0.013647
v -0.003224 0.007692 -0.019634
v -0.003373 0.007698 -0.027370
v 0.004035 0.006920 -0.013729
v 0.001069 0.006912 -0.030064
v 0.002740 0.006932 -0.034324
v 0.001909 0.006932 -0.035428
v -0.002921 0.006947 -0.032014
v -0.001053 0.006913 -0.030063
v -0.001047 0.006910 -0.013752
v 0.000768 0.006816 -0.049358
v -0.003352 0.007341 -0.007275
v -0.003756 0.006549 -0.004552
v 0.003952 0.004490 -0.009270
v 0.003862 0.005427 -0.009042
v -0.002754 0.007431 -0.007224
v -0.001145 0.009187 -0.006934
v -0.002843 0.008102 -0.004403
v -0.001101 0.008707 -0.006927
v -0.002809 0.007549 -0.004266
v -0.001736 0.008951 -0.004429
v 0.000709 0.009339 -0.006889
v -0.000654 0.008835 -0.004168
v -0.000695 0.009231 -0.004058
v 0.000860 0.008760 -0.006890
v 0.001507 0.009049 -0.003917
v 0.001980 0.008497 -0.006573
v 0.001921 0.008821 -0.006994
v 0.001148 0.008728 -0.004008
v 0.002972 0.008102 -0.006673
v 0.002843 0.008159 -0.004127
v 0.003512 0.006028 -0.006532
v 0.003855 0.006663 -0.006540
v 0.002795 0.007492 -0.004040
v 0.003591 0.006840 -0.003655
v 0.003618 0.007016 -0.003967
v 0.003955 0.004473 -0.006579
v 0.003515 0.005798 -0.003995
v 0.003970 0.005515 -0.003766
v 0.003651 0.005399 -0.009408
v 0.003137 0.003443 -0.006174
v 0.003456 0.003515 -0.008970
v 0.002787 0.003272 -0.009170
v 0.002609 0.002461 -0.008931
v 0.003716 0.003966 -0.003741
v 0.001640 0.001777 -0.009130
v 0.003247 0.003817 -0.003471
v 0.002727 0.003161 -0.006481
v 0.001074 0.002061 -0.008945
v 0.001811 0.001887 -0.006347
v 0.002594 0.002475 -0.003818
v 0.002575 0.002750 -0.003399
v 0.000451 0.001543 -0.008876
v 0.000607 0.001522 -0.006151
v 0.001252 0.002182 -0.003625
v 0.000468 0.001968 -0.006189
v 0.000897 0.001679 -0.003324
v -0.000946 0.001662 -0.008830
v -0.001160 0.002181 -0.008839
v -0.000722 0.001585 -0.006155
v -0.002258 0.002366 -0.009122
v -0.000650 0.001517 -0.003416
v -0.002436 0.002631 -0.005922
v -0.002706 0.002553 -0.006164
v -0.001230 0.002006 -0.003230
v -0.002859 0.003709 -0.008820
v -0.002786 0.002972 -0.008641
v -0.001530 0.002222 -0.003660
v -0.002350 0.002267 -0.003387
v -0.002649 0.003273 -0.006212
v -0.002544 0.003146 -0.003333
v -0.003631 0.004678 -0.005804
v -0.003523 0.003754 -0.003174
v -0.003709 0.005613 -0.008916
v -0.003341 0.005004 -0.006101
v -0.003530 0.005741 -0.008463
v -0.003528 0.006967 -0.008719
v -0.003318 0.004601 -0.003256
v -0.003627 0.006810 -0.005807
v -0.003921 0.005423 -0.003128
v -0.002889 0.007157 -0.008701
v -0.002750 0.007709 -0.008316
v -0.002385 0.008476 -0.008393
v -0.003682 0.006473 -0.003404
v -0.003238 0.006551 -0.003148
v -0.002598 0.007991 -0.005544
v -0.002398 0.007896 -0.005799
v -0.002076 0.008770 -0.005780
v -0.001416 0.008491 -0.008431
v -0.002817 0.008218 -0.002942
v -0.002397 0.007842 -0.002997
v 0.000564 0.008853 -0.008305
v 0.000266 0.009235 -0.008090
v -0.000617 0.009066 -0.005386
v -0.000172 0.009238 -0.005829
v 0.000165 0.008917 -0.005552
v 0.001588 0.009029 -0.008058
v 0.000838 0.009291 -0.005482
v 0.002481 0.008066 -0.008303
v 0.003262 0.007868 -0.008171
v 0.002671 0.007960 -0.005109
v 0.002261 0.008728 -0.005457
v 0.003246 0.007360 -0.007818
v 0.004083 0.005444 -0.007955
v 0.003662 0.005775 -0.008148
v 0.003455 0.003825 -0.007584
v 0.003455 0.004512 -0.007830
v 0.003884 0.005319 -0.004943
v 0.003600 0.003647 -0.007897
v 0.003751 0.003899 -0.005016
v 0.003329 0.004161 -0.005178
v 0.002888 0.002680 -0.007636
v 0.002573 0.002836 -0.004782
v 0.001655 0.001790 -0.007708
v 0.002008 0.001976 -0.005000
v 0.001075 0.001878 -0.007430
v 0.001154 0.002102 -0.007810
v -0.000707 0.001552 -0.007741
v 0.000719 0.001910 -0.004689
v -0.000621 0.002067 -0.007635
v -0.000195 0.001480 -0.004879
v -0.002045 0.002262 -0.007324
v -0.001487 0.002386 -0.004859
v -0.002985 0.003010 -0.007667
v -0.003163 0.003616 -0.007227
v -0.002713 0.003353 -0.007501
v -0.002870 0.002927 -0.004985
v -0.003032 0.003849 -0.004677
v -0.003863 0.005123 -0.007377
v -0.002923 0.003190 -0.004511
v -0.003742 0.004362 -0.004637
v -0.003379 0.005093 -0.007183
v -0.003234 0.007435 -0.007002
v -0.003512 0.005785 -0.004358
v 0.000787 0.009127 -0.004412
v -0.000706 0.009030 -0.007257
v 0.002774 0.007941 -0.006988
v 0.003753 0.005584 -0.006799
v 0.003289 0.003904 -0.003938
v 0.000353 0.001599 -0.003741
v 0.002701 0.002521 -0.006563
v 0.002993 0.002917 -0.009383
v -0.000796 0.001993 -0.006438
v -0.000495 0.001727 -0.009216
v -0.003363 0.003886 -0.003587
v -0.003665 0.004432 -0.006270
v -0.003340 0.004968 -0.008908
v -0.003106 0.007249 -0.006120
v -0.003713 0.004424 -0.008800
v -0.001613 0.008721 -0.005968
v -0.001207 0.009076 -0.008612
v 0.001807 0.008468 -0.005567
v 0.000486 0.009227 -0.008547
v 0.003802 0.006698 -0.005433
v 0.003268 0.006642 -0.005315
v 0.003366 0.003552 -0.005288
v 0.002556 0.002755 -0.008007
v 0.000895 0.001859 -0.005174
v -0.001868 0.001980 -0.004697
v -0.003560 0.004672 -0.004914
v -0.003361 0.006774 -0.004789
v -0.003514 0.006420 -0.007540
v -0.002279 0.008226 -0.004642
v -0.002104 0.008547 -0.007353
v -0.002668 0.005235 -0.036999
v -0.001943 0.006338 -0.039365
v -0.003251 0.005078 -0.039456
v -0.003916 0.004047 -0.037008
v 0.003588 0.002911 -0.041671
v -0.002716 0.005283 -0.039769
v -0.002716 0.005857 -0.037015
v -0.001321 0.006191 -0.039439
v -0.002581 0.005699 -0.036654
v -0.001102 0.006708 -0.036937
v 0.000490 0.006822 -0.039447
v -0.000364 0.006420 -0.036656
v 0.000498 0.006629 -0.036495
v 0.000641 0.006243 -0.039453
v 0.001769 0.005981 -0.039165
v 0.001698 0.006304 -0.039584
v 0.002414 0.005996 -0.036548
v 0.002758 0.005585 -0.039291
v 0.003263 0.003721 -0.039309
v 0.003268 0.004231 -0.039000
v 0.002691 0.004909 -0.036504
v 0.003495 0.004504 -0.036531
v 0.003720 0.003169 -0.038988
v 0.003714 0.001884 -0.039161
v 0.003357 0.002880 -0.042022
v 0.003686 0.003519 -0.036256
v 0.003207 0.001282 -0.041573
v 0.003412 0.002352 -0.036507
v 0.003527 0.001518 -0.042029
v 0.003784 0.002261 -0.036372
v 0.003027 0.001494 -0.038958
v 0.002204 0.000090 -0.041958
v 0.001959 -0.000418 -0.041556
v 0.003360 0.001679 -0.036123
v 0.003328 0.001327 -0.036580
v 0.001652 -0.000018 -0.041635
v 0.002065 -0.000276 -0.038766
v 0.001805 0.000049 -0.038985
v 0.002874 0.000445 -0.036091
v 0.001443 -0.000513 -0.039158
v -0.000510 -0.001033 -0.041415
v 0.001890 0.000060 -0.036328
v -0.000319 -0.000569 -0.041440
v 0.000382 -0.000993 -0.038705
v 0.000478 -0.000974 -0.036218
v 0.000472 -0.000808 -0.035850
v -0.000645 -0.000554 -0.038755
v -0.000922 -0.000932 -0.038676
v -0.002654 -0.000144 -0.041242
v -0.002629 0.000114 -0.038398
v -0.000215 -0.000585 -0.036218
v -0.002371 0.000231 -0.041264
v -0.001336 -0.000847 -0.035941
v -0.002905 0.000037 -0.038634
v -0.001939 -0.000147 -0.035710
v -0.003507 0.001748 -0.041044
v -0.002850 0.000756 -0.038683
v -0.002750 0.000002 -0.035862
v -0.003825 0.002168 -0.038248
v -0.003631 0.001161 -0.035790
v -0.003893 0.003271 -0.041398
v -0.003539 0.002488 -0.038554
v -0.003637 0.001571 -0.035527
v -0.003920 0.003601 -0.040933
v -0.003359 0.004241 -0.041054
v -0.003559 0.002167 -0.035938
v -0.003774 0.004384 -0.038205
v -0.003505 0.004917 -0.040911
v -0.003556 0.003029 -0.035742
v -0.004047 0.003053 -0.035648
v -0.002834 0.005603 -0.041232
v -0.002624 0.005477 -0.038069
v -0.003505 0.004173 -0.035355
v -0.002779 0.005808 -0.038249
v -0.002105 0.006328 -0.040985
v -0.001289 0.006575 -0.040715
v -0.001406 0.006133 -0.040942
v -0.001786 0.006012 -0.038416
v -0.001268 0.006714 -0.038198
v -0.002533 0.005314 -0.035532
v 0.000339 0.006778 -0.040644
v -0.000796 0.006549 -0.037911
v 0.000639 0.006306 -0.040724
v 0.000164 0.006382 -0.038303
v 0.000656 0.006774 -0.038044
v 0.000516 0.006548 -0.041098
v 0.002636 0.005751 -0.040683
v 0.002482 0.005715 -0.037752
v 0.001639 0.005851 -0.038018
v 0.002460 0.005270 -0.040567
v 0.002079 0.006211 -0.038057
v 0.003371 0.004438 -0.040424
v 0.003506 0.004083 -0.040847
v 0.003047 0.004219 -0.037913
v 0.003785 0.002630 -0.040521
v 0.003321 0.002581 -0.040587
v 0.003311 0.001628 -0.040219
v 0.003714 0.002802 -0.037586
v 0.003040 0.000598 -0.040459
v 0.003598 0.001552 -0.037781
v 0.002522 0.000718 -0.040313
v 0.003211 0.001960 -0.037820
v 0.002275 -0.000173 -0.040205
v 0.002710 0.000225 -0.037456
v 0.000976 -0.000365 -0.040168
v 0.000757 -0.000943 -0.040225
v 0.001679 -0.000140 -0.037419
v 0.001464 -0.000694 -0.037505
v -0.000896 -0.000459 -0.040136
v -0.000350 -0.000964 -0.037614
v -0.000240 -0.000807 -0.037168
v -0.002194 -0.000399 -0.039826
v -0.001345 -0.000818 -0.037388
v -0.000917 -0.000451 -0.037328
v -0.003052 0.000939 -0.039828
v -0.002743 0.000644 -0.037170
v -0.003171 0.000484 -0.037016
v -0.003543 0.000944 -0.039786
v -0.004021 0.002268 -0.039872
v -0.003954 0.001981 -0.037130
v -0.003600 0.002924 -0.039634
v -0.003577 0.002994 -0.036962
v -0.003964 0.003745 -0.039678
v 0.001525 0.006165 -0.036927
v -0.001316 0.006506 -0.039808
v 0.003457 0.003938 -0.036761
v 0.002552 0.005425 -0.039601
v 0.003541 0.004055 -0.039455
v 0.002214 -0.000223 -0.036413
v 0.002877 0.000473 -0.039249
v -0.002360 0.000031 -0.036138
v -0.001209 -0.000595 -0.038978
v 0.000618 -0.000729 -0.041870
v -0.001396 -0.000543 -0.041727
v -0.003867 0.001916 -0.038715
v -0.002996 0.000847 -0.041532
v -0.003717 0.004262 -0.035815
v -0.002937 0.005707 -0.035534
v -0.003304 0.004733 -0.038579
v -0.003981 0.001908 -0.041242
v -0.003312 0.004676 -0.041318
v -0.000904 0.006564 -0.041146
v 0.003620 0.004181 -0.038073
v 0.002841 0.004747 -0.040801
v 0.003512 0.001946 -0.040752
v 0.002639 0.000559 -0.037895
v 0.001094 -0.000581 -0.037771
v 0.002051 -0.000024 -0.040601
v -0.000955 -0.000847 -0.040363
v -0.002805 0.000277 -0.037496
v -0.003065 0.000615 -0.040213
v -0.003911 0.003049 -0.037280
v -0.003638 0.004540 -0.039945
v 0.000324 0.006667 -0.036978
v -0.003657 0.001418 -0.000828
v 0.003785 0.001406 -0.000498
v -0.002654 0.001460 -0.002537
v 0.000235 0.001404 -0.003608
v 0.002866 0.001458 -0.002292
v 0.003905 0.010472 0.000020
v -0.003680 0.010476 -0.001084
v -0.001734 0.010470 -0.003117
v 0.000335 0.010461 -0.003522
v 0.002635 0.010510 -0.002551
v 0.000388 0.006866 0.006767
v -0.000014 0.004121 0.006968
v -0.000541 0.006866 0.006587
v -0.000519 0.004121 0.006011
v -0.002486 0.006866 -0.003173
v 0.003152 0.006866 -0.002357
v 0.001515 0.006866 0.002624
v 0.000955 0.010527 0.003031
v -0.001922 0.006866 0.002209
v -0.002480 0.010527 0.001308
v -0.002486 0.004121 -0.003173
v 0.003152 0.004121 -0.002357
v 0.002660 0.001375 0.000840
v 0.002275 0.004121 -0.001060
v 0.002042 0.004121 0.002092
v 0.000175 0.001375 0.003022
v -0.001606 0.004121 0.002620
v -0.002605 0.001375 0.001087
v -0.002368 0.004121 -0.000838
v 0.001079 0.004121 0.001008
v -0.000585 0.004121 0.001533
v -0.001047 0.006866 0.001305
v -0.001132 0.004121 -0.000266
v 0.001291 0.006866 0.000752
v -0.000121 0.006866 -0.001037
v -0.002189 0.006866 -0.001314
v 0.002143 0.006866 -0.001603
v -0.000160 0.004121 -0.002250
v 0.000750 0.004121 -0.000779
v -0.001260 0.001375 -0.002021
v 0.001515 0.001375 -0.001774
v 0.003632 0.004121 0.002238
v 0.003620 0.001441 0.001756
v 0.002337 0.001421 0.003433
v -0.000251 0.004121 0.004354
v 0.000360 0.001442 0.004207
v -0.001656 0.001415 0.003836
v -0.003680 0.004121 0.002036
v -0.003678 0.001428 0.001788
v -0.001501 0.010527 -0.001936
v 0.002395 0.010527 -0.001135
v 0.001405 0.010471 0.003997
v -0.001129 0.010486 0.004043
v 0.000174 0.006866 0.005628
v 0.000459 0.004121 0.005827
v 0.003896 0.006866 0.001717
v 0.003626 0.004121 0.007343
v 0.003558 0.006866 0.007263
v 0.007328 0.006866 -0.003774
v 0.007328 0.004121 -0.003774
v -0.007315 0.004121 -0.003774
v -0.007315 0.006866 -0.003774
v -0.003883 0.006866 0.001717
v -0.003683 0.004121 0.007189
v -0.003449 0.006866 0.007407
v -0.003378 0.010463 0.002403
v 0.003295 0.010462 0.002402
v 0.003671 -0.001327 -0.044244
v -0.003772 -0.001339 -0.044573
v 0.002667 -0.001285 -0.042534
v -0.000222 -0.001341 -0.041463
v -0.002853 -0.001288 -0.042779
v -0.003891 0.007726 -0.045092
v 0.003956 0.007739 -0.045423
v 0.002886 0.007716 -0.042816
v 0.000427 0.007727 -0.041483
v -0.002622 0.007764 -0.042520
v -0.000523 0.001375 -0.051715
v 0.000624 0.004121 -0.051672
v 0.000514 0.001375 -0.051724
v 0.002987 0.004121 -0.042533
v -0.002694 0.004121 -0.042055
v -0.002714 0.004121 -0.046190
v -0.001922 0.007781 -0.047281
v 0.000416 0.004121 -0.048022
v 0.001754 0.007781 -0.047590
v 0.002660 0.004121 -0.045911
v 0.002274 0.007781 -0.044011
v 0.002987 0.001375 -0.042533
v -0.002694 0.001375 -0.042055
v -0.002647 -0.001370 -0.045911
v -0.001741 0.001375 -0.047590
v -0.000403 -0.001370 -0.048022
v 0.001515 0.001375 -0.047534
v 0.002590 -0.001370 -0.046416
v 0.002660 0.001375 -0.044919
v 0.000493 0.004121 -0.046795
v 0.000356 0.001375 -0.046643
v 0.001290 0.001375 -0.045008
v 0.000721 0.004121 -0.044262
v 0.001515 0.004121 -0.043297
v -0.001017 0.004121 -0.042984
v -0.001280 0.004121 -0.045050
v -0.002161 0.001375 -0.043779
v -0.001398 0.001375 -0.045502
v 0.000648 0.001375 -0.042896
v -0.000106 0.001375 -0.044197
v 0.001273 -0.001370 -0.043050
v -0.001501 -0.001370 -0.043297
v -0.003606 -0.001304 -0.046827
v -0.002324 -0.001324 -0.048504
v -0.000346 -0.001304 -0.049279
v 0.001670 -0.001331 -0.048907
v 0.003691 -0.001318 -0.046859
v -0.000651 0.007781 -0.042814
v -0.002473 0.007781 -0.044710
v -0.003687 0.004121 -0.047082
v 0.000658 0.004121 -0.049589
v 0.002433 0.007704 -0.048552
v 0.003754 0.004121 -0.046732
v 0.000048 0.001375 -0.050703
v -0.000030 0.004121 -0.050780
v -0.000623 0.004121 -0.051482
v -0.003613 0.001375 -0.052415
v -0.003545 0.004121 -0.052334
v -0.003883 0.001375 -0.046788
v -0.007315 0.004121 -0.041297
v -0.007315 0.001375 -0.041297
v 0.007328 0.001375 -0.041297
v 0.007328 0.004121 -0.041297
v 0.003896 0.001375 -0.046788
v 0.003696 0.001375 -0.052260
v 0.003463 0.004121 -0.052479
v -0.002856 0.007754 -0.048136
v -0.000213 0.007733 -0.049288
v 0.000419 0.000240 -0.047716
v 0.002014 0.000250 -0.046577
v 0.002404 0.001375 -0.045485
v 0.002256 0.000248 -0.044869
v 0.001625 0.001375 -0.043946
v 0.000813 0.000256 -0.043150
v -0.000107 0.001375 -0.046645
v 0.000389 0.005951 -0.046760
v 0.001335 0.001375 -0.045292
v 0.000709 0.005951 -0.044282
v 0.000869 -0.000461 -0.045126
v -0.001057 -0.000417 -0.045607
v -0.000315 -0.000449 -0.044689
v 0.000034 -0.000485 -0.046196
v 0.000007 0.001007 -0.045416
v -0.001276 0.001375 -0.045176
v -0.001223 0.005951 -0.045105
v -0.002068 0.001375 -0.046618
v -0.001690 0.001375 -0.043555
v 0.000615 0.001375 -0.047825
v -0.001817 0.000233 -0.043878
v -0.002243 0.000264 -0.046017
v -0.001259 0.000251 -0.047327
v 0.000419 0.002986 -0.001957
v 0.002014 0.002996 -0.000817
v 0.002134 0.004121 0.001661
v 0.002256 0.002994 0.000890
v 0.000814 0.003002 0.002610
v -0.000716 0.004121 0.002631
v 0.001124 0.008697 -0.000255
v 0.001158 0.004121 -0.000187
v 0.000049 0.008697 0.001724
v 0.000557 0.004121 0.001449
v 0.001071 0.002328 0.000152
v 0.000328 0.002296 0.001071
v -0.000856 0.002285 0.000634
v -0.000021 0.002261 -0.000437
v 0.000007 0.003753 0.000344
v -0.000972 0.004121 0.001083
v -0.001020 0.008697 -0.000536
v -0.000742 0.004121 -0.000713
v -0.002521 0.004121 -0.000128
v 0.001090 0.004121 -0.002009
v -0.001817 0.002979 0.001882
v -0.002243 0.003010 -0.000257
v -0.001259 0.002997 -0.001568
f 9 1 10
f 11 9 10
f 13 11 12
f 14 13 12
f 14 12 2
f 15 14 2
f 301 292 5
f 299 301 5
f 16 5 7
f 16 299 5
f 16 7 8
f 300 16 8
f 17 8 6
f 17 300 8
f 20 19 100
f 20 18 19
f 258 21 22
f 23 24 25
f 23 26 24
f 27 25 28
f 27 23 25
f 29 28 30
f 29 27 28
f 31 30 32
f 31 29 30
f 33 32 34
f 33 31 32
f 35 34 36
f 35 33 34
f 37 36 38
f 37 35 36
f 39 38 40
f 39 37 38
f 41 40 42
f 41 39 40
f 43 42 44
f 43 41 42
f 45 44 46
f 45 43 44
f 47 48 49
f 47 46 48
f 47 45 46
f 50 49 51
f 50 47 49
f 52 51 53
f 52 50 51
f 54 55 56
f 54 53 55
f 54 52 53
f 57 54 56
f 58 59 60
f 61 60 62
f 61 58 60
f 61 62 63
f 61 63 64
f 61 64 65
f 61 65 66
f 61 66 67
f 68 67 69
f 68 61 67
f 70 69 71
f 70 68 69
f 72 71 73
f 72 70 71
f 74 73 75
f 74 72 73
f 76 75 77
f 76 74 75
f 78 77 79
f 78 76 77
f 80 78 79
f 80 81 82
f 80 79 81
f 83 82 84
f 83 80 82
f 85 83 84
f 85 84 86
f 87 85 86
f 88 303 106
f 89 88 106
f 89 106 107
f 90 89 107
f 93 94 95
f 92 94 93
f 96 93 95
f 96 95 99
f 95 98 97
f 94 98 95
f 100 20 101
f 102 100 101
f 20 103 18
f 101 103 20
f 104 19 18
f 104 18 103
f 188 279 277
f 188 277 105
f 186 105 277
f 303 279 188
f 106 279 303
f 274 186 277
f 281 279 106
f 281 106 107
f 187 274 108
f 16 187 108
f 300 187 16
f 299 16 108
f 109 281 107
f 189 17 298
f 109 189 298
f 109 298 271
f 272 299 108
f 272 301 299
f 267 109 271
f 267 271 297
f 302 273 110
f 296 268 269
f 107 189 109
f 189 187 300
f 189 300 17
f 187 186 274
f 302 301 273
f 273 301 272
f 297 269 268
f 297 268 267
f 111 251 112
f 113 252 251
f 113 251 111
f 114 112 254
f 257 253 115
f 114 111 112
f 21 115 116
f 257 115 21
f 116 114 254
f 253 252 113
f 115 253 113
f 21 116 254
f 117 118 119
f 117 119 120
f 120 119 122
f 120 122 121
f 123 121 122
f 123 124 121
f 125 126 52
f 125 52 50
f 125 50 47
f 125 47 45
f 125 45 43
f 127 43 41
f 127 41 39
f 127 39 37
f 127 125 43
f 128 26 129
f 128 35 33
f 128 33 31
f 128 31 29
f 128 29 27
f 128 27 23
f 128 23 26
f 128 129 130
f 127 37 35
f 127 35 128
f 131 128 130
f 132 133 134
f 132 91 133
f 135 136 137
f 90 138 139
f 88 91 132
f 136 132 134
f 136 134 140
f 137 136 140
f 88 141 91
f 141 88 89
f 142 141 89
f 142 89 90
f 143 142 90
f 101 103 104
f 78 80 104
f 78 104 135
f 76 135 137
f 76 78 135
f 83 104 80
f 74 76 137
f 85 104 83
f 72 74 137
f 102 101 104
f 87 102 104
f 87 104 85
f 70 137 144
f 70 72 137
f 145 102 87
f 68 70 144
f 146 102 145
f 61 68 144
f 147 102 146
f 139 143 90
f 148 102 147
f 149 102 148
f 149 138 102
f 150 138 149
f 151 61 144
f 151 58 61
f 139 138 150
f 139 152 153
f 139 154 152
f 139 150 154
f 155 139 153
f 155 156 157
f 155 158 156
f 155 159 158
f 155 160 159
f 155 153 160
f 161 58 151
f 161 155 157
f 161 162 58
f 161 157 162
f 126 161 151
f 126 151 163
f 165 163 166
f 167 166 164
f 167 165 166
f 168 167 164
f 57 126 163
f 57 163 165
f 169 168 164
f 54 126 57
f 170 169 164
f 52 126 54
f 171 170 164
f 129 26 172
f 129 172 173
f 129 173 174
f 129 174 175
f 129 175 171
f 129 171 164
f 127 125 94
f 127 94 92
f 176 94 286
f 126 125 94
f 126 94 176
f 161 126 176
f 155 176 177
f 155 161 176
f 155 287 177
f 155 139 287
f 287 178 288
f 139 178 287
f 179 219 231
f 179 231 255
f 143 178 139
f 180 178 143
f 255 180 143
f 255 143 179
f 258 181 255
f 180 255 181
f 208 181 258
f 141 180 181
f 278 141 91
f 278 180 141
f 91 280 278
f 22 182 256
f 208 182 22
f 133 183 256
f 133 256 182
f 280 133 91
f 280 183 133
f 184 112 256
f 184 218 112
f 140 275 137
f 183 275 140
f 256 183 140
f 256 140 184
f 144 185 275
f 137 144 275
f 144 185 282
f 151 144 282
f 98 282 284
f 163 282 98
f 163 151 282
f 166 163 98
f 166 97 98
f 166 164 97
f 129 95 97
f 129 97 164
f 99 130 129
f 99 129 95
f 131 130 99
f 96 131 99
f 96 131 128
f 96 128 93
f 127 92 93
f 127 93 128
f 135 186 136
f 135 187 186
f 132 186 105
f 132 136 186
f 132 105 188
f 88 132 188
f 88 188 303
f 138 90 107
f 189 138 107
f 19 187 135
f 104 19 135
f 138 100 102
f 138 189 100
f 189 187 100
f 100 187 19
f 87 86 190
f 145 87 190
f 146 191 192
f 146 190 191
f 146 145 190
f 147 146 192
f 148 193 194
f 148 192 193
f 148 147 192
f 149 194 195
f 149 148 194
f 150 195 196
f 150 149 195
f 154 196 197
f 154 150 196
f 152 154 197
f 153 198 199
f 153 197 198
f 153 152 197
f 160 199 200
f 160 153 199
f 159 160 200
f 158 200 201
f 158 159 200
f 156 202 203
f 156 201 202
f 156 158 201
f 157 203 204
f 157 156 203
f 162 157 204
f 162 204 205
f 58 162 205
f 58 205 59
f 142 179 206
f 143 179 142
f 141 142 206
f 141 206 181
f 134 133 207
f 140 207 184
f 134 207 140
f 207 133 182
f 210 211 207
f 208 212 209
f 213 210 207
f 181 214 212
f 181 212 208
f 181 206 214
f 216 213 207
f 217 123 218
f 118 220 219
f 182 216 207
f 221 216 182
f 123 215 218
f 124 215 123
f 208 222 221
f 208 221 182
f 223 215 124
f 117 223 124
f 206 224 225
f 206 220 224
f 120 124 121
f 120 117 124
f 118 223 117
f 206 225 226
f 217 184 207
f 217 218 184
f 227 217 207
f 206 226 228
f 206 229 214
f 206 228 229
f 219 223 118
f 208 209 222
f 230 227 207
f 179 219 220
f 179 220 206
f 211 230 207
f 219 223 232
f 219 232 231
f 223 233 215
f 223 232 233
f 218 112 233
f 215 218 233
f 208 258 22
f 234 111 123
f 113 234 118
f 113 111 234
f 123 111 114
f 123 114 217
f 224 220 115
f 225 224 115
f 226 225 115
f 228 226 115
f 229 228 115
f 214 115 116
f 214 229 115
f 212 214 116
f 209 212 116
f 222 209 116
f 221 222 116
f 216 221 116
f 213 216 116
f 210 116 114
f 210 213 116
f 211 210 114
f 230 211 114
f 227 230 114
f 217 227 114
f 118 220 115
f 113 118 115
f 57 56 235
f 165 235 236
f 165 57 235
f 165 236 237
f 165 237 238
f 165 238 239
f 165 239 240
f 165 240 241
f 167 241 242
f 167 165 241
f 168 242 243
f 168 167 242
f 169 243 244
f 169 168 243
f 170 244 245
f 170 169 244
f 171 245 246
f 171 170 245
f 175 246 247
f 175 171 246
f 174 175 247
f 174 248 249
f 174 247 248
f 173 174 249
f 172 249 250
f 172 173 249
f 26 250 24
f 26 172 250
f 245 248 247
f 245 247 246
f 250 249 248
f 243 245 244
f 25 24 250
f 30 28 25
f 239 242 241
f 239 241 240
f 34 32 30
f 34 25 250
f 34 30 25
f 36 243 242
f 36 248 245
f 36 250 248
f 36 245 243
f 36 34 250
f 235 239 238
f 235 238 237
f 235 237 236
f 40 38 36
f 40 36 242
f 44 42 40
f 44 242 239
f 44 40 242
f 44 239 235
f 53 235 56
f 53 56 55
f 46 235 53
f 46 44 235
f 48 46 53
f 49 48 53
f 49 53 51
f 232 233 251
f 252 232 251
f 112 251 233
f 252 231 232
f 252 253 231
f 112 256 254
f 253 257 255
f 231 253 255
f 256 22 21
f 254 256 21
f 257 21 258
f 255 257 258
f 119 118 234
f 122 119 234
f 122 234 123
f 79 14 77
f 259 202 260
f 11 63 64
f 201 202 259
f 11 64 65
f 81 14 79
f 62 63 11
f 11 65 66
f 200 201 259
f 82 14 81
f 11 66 67
f 199 200 259
f 9 60 62
f 9 62 11
f 84 14 82
f 11 67 69
f 198 199 259
f 15 14 84
f 9 59 60
f 86 15 84
f 13 69 71
f 261 198 259
f 13 11 69
f 197 198 261
f 205 59 9
f 73 13 71
f 190 15 86
f 9 204 205
f 196 197 261
f 75 13 73
f 191 15 190
f 260 204 9
f 260 203 204
f 77 13 75
f 195 196 261
f 14 13 77
f 192 15 191
f 260 202 203
f 194 195 261
f 193 261 15
f 193 15 192
f 193 194 261
f 262 283 284
f 293 283 262
f 282 262 284
f 294 262 282
f 263 285 270
f 286 285 263
f 295 294 282
f 176 286 263
f 176 263 289
f 264 295 282
f 176 289 266
f 10 292 5
f 1 292 10
f 12 10 5
f 12 5 7
f 1 290 292
f 12 7 8
f 4 290 1
f 4 265 290
f 2 12 8
f 3 265 4
f 291 265 3
f 177 176 266
f 6 2 8
f 6 3 2
f 6 291 3
f 285 283 293
f 285 293 270
f 290 270 293
f 290 293 292
f 94 286 285
f 267 109 266
f 268 296 263
f 268 263 289
f 267 289 266
f 267 268 289
f 296 270 269
f 263 270 296
f 269 290 297
f 269 270 290
f 17 6 291
f 298 17 291
f 271 298 291
f 271 291 265
f 271 265 290
f 297 271 290
f 293 301 292
f 293 302 301
f 302 262 110
f 293 262 302
f 272 108 295
f 273 295 294
f 273 272 295
f 110 294 262
f 110 273 294
f 108 295 264
f 274 108 264
f 98 283 284
f 94 98 283
f 285 94 283
f 15 2 3
f 261 15 3
f 261 3 4
f 259 261 4
f 260 259 4
f 260 4 1
f 9 260 1
f 275 274 264
f 276 274 275
f 185 275 264
f 288 287 109
f 287 177 109
f 277 183 276
f 183 275 276
f 277 276 274
f 280 183 277
f 279 280 277
f 279 278 280
f 281 180 278
f 281 278 279
f 288 178 180
f 109 180 281
f 109 288 180
f 282 264 185
f 12 10 11
f 266 177 109
f 309 311 312
f 313 308 314
f 315 313 314
f 315 314 316
f 317 315 316
f 318 317 316
f 318 316 310
f 319 318 310
f 460 451 304
f 459 460 304
f 320 304 306
f 320 459 304
f 320 306 307
f 321 320 307
f 321 307 305
f 324 323 335
f 324 322 323
f 417 325 326
f 145 86 190
f 145 87 86
f 147 191 192
f 147 146 191
f 149 193 194
f 149 148 193
f 150 194 195
f 150 149 194
f 154 195 196
f 154 150 195
f 152 196 197
f 152 154 196
f 160 198 199
f 160 153 198
f 159 199 200
f 159 160 199
f 158 201 202
f 156 158 202
f 162 205 59
f 58 162 59
f 173 249 250
f 172 173 250
f 172 250 24
f 26 172 24
f 328 462 337
f 328 327 462
f 328 337 338
f 329 328 338
f 117 332 124
f 331 332 117
f 124 333 334
f 332 333 124
f 335 324 131
f 128 335 131
f 324 130 322
f 131 130 324
f 129 323 322
f 129 322 130
f 379 438 436
f 379 436 336
f 377 336 436
f 462 438 379
f 337 438 462
f 433 377 436
f 440 438 337
f 440 337 338
f 378 433 339
f 320 378 339
f 321 378 320
f 459 320 339
f 340 440 338
f 380 321 458
f 380 458 457
f 340 380 457
f 340 457 430
f 431 459 339
f 431 460 459
f 427 340 430
f 427 430 456
f 461 432 341
f 455 426 428
f 338 380 340
f 380 378 321
f 378 377 433
f 461 460 432
f 432 460 431
f 456 428 426
f 456 426 427
f 342 410 343
f 345 411 410
f 345 410 342
f 346 343 413
f 416 412 347
f 346 342 343
f 416 347 344
f 416 344 325
f 412 411 345
f 347 412 345
f 325 346 413
f 325 344 346
f 93 348 349
f 93 349 96
f 99 349 350
f 96 349 99
f 351 99 350
f 351 95 99
f 352 160 153
f 352 153 152
f 352 152 154
f 352 155 160
f 102 150 149
f 102 104 103
f 352 154 150
f 352 150 102
f 101 102 103
f 353 354 355
f 327 354 353
f 327 330 354
f 356 357 358
f 329 359 360
f 357 353 355
f 357 355 361
f 358 357 361
f 328 362 330
f 328 330 327
f 363 362 328
f 363 328 329
f 364 363 329
f 131 130 129
f 175 129 356
f 171 356 358
f 171 175 356
f 170 171 358
f 169 170 358
f 128 131 129
f 168 358 166
f 168 169 358
f 167 168 166
f 360 364 329
f 33 359 128
f 35 359 33
f 360 359 35
f 360 39 41
f 360 37 39
f 360 35 37
f 125 360 41
f 125 41 43
f 161 126 163
f 161 163 151
f 68 144 365
f 70 68 365
f 72 70 365
f 74 72 365
f 76 74 365
f 104 78 76
f 104 76 365
f 352 155 332
f 352 332 331
f 366 332 445
f 161 155 332
f 161 332 366
f 126 161 366
f 125 366 367
f 125 126 366
f 125 446 367
f 125 360 446
f 446 368 447
f 360 368 446
f 369 395 407
f 369 407 414
f 364 368 360
f 370 368 364
f 414 370 364
f 414 364 369
f 417 371 414
f 370 414 371
f 383 371 417
f 362 370 371
f 437 362 330
f 437 370 362
f 330 439 437
f 326 372 415
f 383 372 326
f 354 373 415
f 354 415 372
f 439 354 330
f 439 373 354
f 374 375 415
f 374 394 375
f 361 434 358
f 373 434 361
f 415 373 361
f 415 361 374
f 166 376 434
f 358 166 434
f 166 376 441
f 163 166 441
f 333 441 443
f 151 441 333
f 151 163 441
f 144 151 333
f 144 334 333
f 144 365 334
f 104 124 334
f 104 334 365
f 121 103 104
f 121 104 124
f 101 103 121
f 120 101 121
f 120 101 102
f 120 102 117
f 352 331 117
f 352 117 102
f 356 377 357
f 356 378 377
f 353 377 336
f 353 357 377
f 353 336 379
f 327 353 379
f 327 379 462
f 359 329 338
f 380 359 338
f 323 378 356
f 129 323 356
f 359 335 128
f 359 380 335
f 380 378 335
f 335 378 323
f 26 24 25
f 23 26 25
f 27 28 30
f 29 27 30
f 31 32 34
f 33 34 36
f 33 31 34
f 35 36 38
f 35 33 36
f 37 38 40
f 37 35 38
f 39 37 40
f 41 42 44
f 43 44 46
f 43 41 44
f 45 43 46
f 50 48 49
f 50 47 48
f 57 54 55
f 57 55 56
f 363 369 381
f 364 369 363
f 362 363 381
f 362 381 371
f 355 354 382
f 361 382 374
f 355 382 361
f 382 354 372
f 385 386 382
f 383 387 384
f 388 385 382
f 371 389 387
f 371 387 383
f 371 381 389
f 391 388 382
f 392 393 394
f 348 396 395
f 372 391 382
f 397 391 372
f 393 390 394
f 95 390 393
f 383 398 397
f 383 397 372
f 399 390 95
f 93 399 95
f 381 400 401
f 381 396 400
f 348 399 93
f 381 401 402
f 392 374 382
f 392 394 374
f 403 392 382
f 381 402 404
f 381 405 389
f 381 404 405
f 395 399 348
f 383 384 398
f 406 403 382
f 369 395 396
f 369 396 381
f 386 406 382
f 395 399 408
f 395 408 407
f 399 409 390
f 399 408 409
f 394 375 409
f 390 394 409
f 383 417 326
f 351 342 393
f 95 351 393
f 345 351 348
f 345 342 351
f 393 342 346
f 393 346 392
f 400 396 347
f 401 400 347
f 402 401 347
f 404 402 347
f 405 347 344
f 405 404 347
f 389 405 344
f 387 389 344
f 384 387 344
f 398 384 344
f 397 398 344
f 391 344 346
f 391 397 344
f 388 391 346
f 385 388 346
f 386 385 346
f 406 386 346
f 403 406 346
f 392 403 346
f 348 396 347
f 345 348 347
f 85 82 84
f 85 83 82
f 87 84 86
f 87 85 84
f 75 81 79
f 75 79 77
f 84 82 81
f 71 75 73
f 190 86 84
f 192 191 190
f 65 69 67
f 65 67 66
f 194 193 192
f 194 190 84
f 194 192 190
f 195 71 69
f 195 81 75
f 195 84 81
f 195 75 71
f 195 194 84
f 60 65 64
f 60 64 63
f 60 63 62
f 197 196 195
f 197 195 69
f 199 198 197
f 199 69 65
f 199 197 69
f 199 65 60
f 204 60 59
f 204 59 205
f 200 60 204
f 200 199 60
f 201 200 204
f 202 201 204
f 202 204 203
f 408 409 410
f 411 408 410
f 375 410 409
f 343 410 375
f 411 407 408
f 411 412 407
f 375 415 413
f 343 375 413
f 412 416 414
f 407 412 414
f 415 326 325
f 413 415 325
f 416 325 417
f 414 416 417
f 349 348 351
f 350 349 351
f 247 318 246
f 315 237 238
f 48 49 418
f 315 238 239
f 248 318 247
f 236 237 315
f 315 239 240
f 46 48 418
f 313 236 315
f 249 319 318
f 249 318 248
f 315 240 241
f 44 46 418
f 313 235 236
f 250 319 249
f 317 241 242
f 317 315 241
f 42 418 312
f 42 44 418
f 313 56 235
f 24 319 250
f 317 242 243
f 40 42 312
f 55 56 313
f 244 317 243
f 25 319 24
f 419 53 55
f 419 55 313
f 38 40 312
f 245 317 244
f 28 319 25
f 420 319 28
f 419 51 53
f 246 317 245
f 36 312 420
f 36 38 312
f 318 317 246
f 30 420 28
f 418 51 419
f 418 49 51
f 34 36 420
f 32 420 30
f 32 34 420
f 421 442 443
f 452 442 421
f 441 421 443
f 453 421 441
f 422 444 429
f 445 444 422
f 454 453 441
f 366 445 422
f 366 422 448
f 423 454 441
f 366 448 425
f 314 451 304
f 316 314 304
f 316 304 306
f 308 449 451
f 308 451 314
f 316 306 307
f 309 449 308
f 309 424 449
f 310 316 307
f 311 424 309
f 305 310 307
f 450 424 311
f 367 366 425
f 305 311 310
f 305 450 311
f 444 442 452
f 444 452 429
f 449 429 452
f 449 452 451
f 332 445 444
f 426 455 422
f 426 422 448
f 427 448 425
f 427 426 448
f 340 427 425
f 455 429 428
f 422 429 455
f 428 449 456
f 428 429 449
f 458 321 305
f 458 305 450
f 457 458 450
f 430 457 450
f 430 450 424
f 430 424 449
f 456 430 449
f 452 460 451
f 452 461 460
f 461 421 341
f 452 421 461
f 431 339 454
f 432 454 453
f 432 431 454
f 341 453 421
f 341 432 453
f 339 454 423
f 433 339 423
f 333 442 443
f 332 333 442
f 444 332 442
f 319 310 311
f 420 319 311
f 312 420 311
f 418 312 309
f 419 418 309
f 419 309 308
f 313 419 308
f 434 433 423
f 435 433 434
f 376 434 423
f 447 446 340
f 446 367 340
f 436 373 435
f 373 434 435
f 436 435 433
f 439 373 436
f 438 439 436
f 438 437 439
f 440 370 437
f 440 437 438
f 447 368 370
f 340 370 440
f 340 447 370
f 441 423 376
f 425 367 340
f 471 464 585
f 471 469 464
f 470 584 467
f 475 472 469
f 475 469 471
f 470 468 584
f 468 473 587
f 474 475 471
f 476 468 470
f 478 473 468
f 476 478 468
f 478 479 473
f 480 475 474
f 478 481 479
f 480 477 475
f 478 484 481
f 486 482 477
f 486 477 480
f 485 486 480
f 486 487 482
f 483 484 478
f 489 486 485
f 486 490 487
f 491 493 466
f 492 488 484
f 483 492 484
f 493 465 466
f 483 589 499
f 494 493 491
f 493 495 593
f 499 492 483
f 498 490 486
f 498 496 490
f 498 486 489
f 495 493 494
f 592 488 492
f 500 495 494
f 503 502 496
f 503 496 498
f 501 592 492
f 505 501 492
f 504 497 495
f 500 504 495
f 499 505 492
f 503 498 506
f 507 505 499
f 508 502 503
f 510 504 500
f 506 508 503
f 509 504 510
f 514 511 505
f 514 505 507
f 513 591 508
f 516 513 508
f 518 512 509
f 516 508 506
f 594 514 507
f 510 518 509
f 514 515 511
f 519 516 506
f 517 518 510
f 516 520 513
f 518 600 512
f 521 514 594
f 523 515 514
f 524 520 516
f 522 524 516
f 521 526 514
f 527 600 518
f 527 518 517
f 598 527 517
f 527 528 525
f 529 524 522
f 523 514 526
f 527 525 600
f 523 530 597
f 532 527 598
f 533 528 527
f 533 527 532
f 533 534 528
f 536 531 524
f 536 524 529
f 537 530 523
f 538 537 523
f 537 539 530
f 540 534 533
f 540 533 532
f 541 535 531
f 542 541 531
f 542 531 536
f 544 534 540
f 544 602 534
f 545 537 538
f 543 544 540
f 545 546 539
f 545 539 537
f 547 545 538
f 549 546 545
f 544 543 550
f 552 549 545
f 547 552 545
f 554 548 544
f 550 554 544
f 552 553 549
f 554 551 548
f 552 547 603
f 552 605 553
f 554 555 551
f 557 555 554
f 559 605 552
f 558 557 554
f 558 554 556
f 606 559 552
f 557 560 555
f 562 559 606
f 563 560 557
f 557 558 608
f 564 561 559
f 562 564 559
f 564 566 561
f 567 563 557
f 568 567 557
f 568 557 608
f 567 565 563
f 569 565 567
f 564 609 570
f 567 568 571
f 570 566 564
f 570 572 566
f 573 569 567
f 573 567 571
f 610 572 570
f 574 610 570
f 577 576 573
f 577 573 571
f 576 575 573
f 581 610 574
f 576 580 575
f 581 578 610
f 579 581 574
f 581 582 578
f 583 576 577
f 583 580 576
f 585 582 581
f 584 463 580
f 579 585 581
f 585 464 582
f 584 580 583
f 467 584 583
f 587 615 468
f 476 470 587
f 477 482 586
f 479 476 587
f 485 480 586
f 473 479 587
f 482 485 586
f 588 478 476
f 588 476 479
f 489 485 482
f 588 479 481
f 489 482 487
f 483 478 588
f 489 487 490
f 589 483 588
f 484 589 588
f 484 588 481
f 590 498 489
f 496 590 489
f 496 489 490
f 488 589 484
f 590 506 498
f 502 590 496
f 502 506 590
f 488 499 589
f 465 593 491
f 465 491 466
f 508 591 502
f 592 499 488
f 591 506 502
f 494 491 593
f 593 465 493
f 592 507 499
f 519 506 591
f 495 497 593
f 505 594 592
f 505 592 501
f 593 500 494
f 519 591 513
f 594 507 592
f 519 513 520
f 522 516 519
f 594 505 511
f 595 500 593
f 595 593 497
f 596 522 519
f 511 515 594
f 596 519 520
f 520 524 596
f 595 497 504
f 529 522 596
f 509 595 504
f 595 510 500
f 597 521 594
f 597 594 515
f 531 596 524
f 536 529 596
f 512 595 509
f 595 517 510
f 535 536 596
f 535 596 531
f 597 515 523
f 512 517 595
f 526 521 597
f 598 517 512
f 599 526 597
f 542 536 535
f 600 598 512
f 599 523 526
f 535 541 542
f 530 599 597
f 538 523 599
f 525 598 600
f 530 539 599
f 532 598 525
f 601 538 599
f 528 532 525
f 539 601 599
f 547 538 601
f 602 532 528
f 534 602 528
f 539 546 601
f 540 532 602
f 546 547 601
f 603 547 546
f 543 540 602
f 544 604 602
f 553 546 549
f 604 543 602
f 605 603 546
f 553 605 546
f 604 544 548
f 606 552 603
f 550 543 604
f 606 603 605
f 551 604 548
f 550 604 551
f 556 554 550
f 605 562 606
f 559 561 605
f 556 550 551
f 556 551 555
f 607 605 561
f 607 562 605
f 608 558 556
f 561 566 607
f 608 556 555
f 560 608 555
f 607 564 562
f 566 609 607
f 609 564 607
f 563 608 560
f 572 609 566
f 565 608 563
f 609 574 570
f 569 568 608
f 565 569 608
f 578 574 609
f 578 609 572
f 610 578 572
f 569 571 568
f 578 579 574
f 577 571 569
f 575 577 569
f 575 569 573
f 611 579 578
f 611 578 582
f 611 585 579
f 582 464 611
f 612 585 611
f 613 583 577
f 612 611 464
f 613 577 575
f 580 613 575
f 614 471 585
f 614 585 612
f 467 583 613
f 469 612 464
f 469 614 612
f 463 613 580
f 472 614 469
f 614 474 471
f 615 467 613
f 463 615 613
f 586 474 614
f 472 586 614
f 615 463 584
f 615 584 468
f 587 470 467
f 587 467 615
f 586 472 475
f 586 480 474
f 586 475 477
f 624 619 737
f 616 624 737
f 624 622 619
f 623 617 621
f 617 626 740
f 625 622 624
f 627 624 616
f 628 625 624
f 629 617 623
f 630 626 617
f 627 628 624
f 629 630 617
f 630 631 626
f 628 632 769
f 630 633 631
f 635 743 633
f 630 635 633
f 635 630 634
f 636 632 628
f 638 743 635
f 641 637 632
f 642 644 620
f 641 632 636
f 640 642 620
f 634 638 635
f 643 641 636
f 646 638 634
f 646 634 743
f 646 639 638
f 647 642 640
f 642 648 644
f 649 641 643
f 649 645 641
f 651 648 642
f 649 650 645
f 652 745 639
f 652 639 646
f 654 650 649
f 653 652 646
f 643 654 649
f 659 652 653
f 658 656 648
f 658 648 651
f 659 655 652
f 654 643 657
f 661 744 654
f 662 659 653
f 660 744 661
f 657 661 654
f 664 656 658
f 665 663 659
f 665 659 662
f 666 661 657
f 667 664 658
f 661 668 660
f 665 669 663
f 670 668 661
f 672 665 662
f 670 661 666
f 671 664 667
f 751 671 667
f 671 755 664
f 670 673 668
f 674 669 665
f 678 673 670
f 672 677 665
f 679 755 671
f 678 675 673
f 681 678 670
f 674 665 677
f 679 676 755
f 674 682 750
f 680 679 671
f 678 685 675
f 684 678 681
f 680 683 679
f 688 685 678
f 688 678 684
f 687 682 674
f 688 752 685
f 690 686 683
f 691 690 683
f 691 683 680
f 688 684 695
f 692 691 680
f 688 753 752
f 692 680 756
f 687 689 682
f 687 694 689
f 688 695 753
f 696 691 692
f 697 687 693
f 697 694 687
f 698 696 692
f 699 697 693
f 700 694 697
f 698 701 705
f 703 700 697
f 704 703 697
f 705 696 698
f 705 702 696
f 699 704 697
f 703 706 700
f 707 702 705
f 703 758 706
f 709 703 704
f 759 707 705
f 707 710 708
f 711 707 759
f 712 710 707
f 713 758 703
f 713 703 709
f 712 707 711
f 712 714 710
f 717 713 709
f 716 712 711
f 718 714 712
f 719 715 713
f 716 718 712
f 717 719 713
f 720 718 716
f 722 719 717
f 720 721 718
f 722 723 719
f 727 721 720
f 724 727 720
f 726 725 723
f 727 764 721
f 726 723 722
f 729 726 722
f 726 728 725
f 730 733 727
f 730 727 724
f 732 728 726
f 729 732 726
f 731 732 729
f 736 734 733
f 736 733 730
f 737 732 731
f 736 730 766
f 738 734 736
f 618 738 736
f 737 735 732
f 618 768 738
f 737 619 735
f 621 618 736
f 617 618 621
f 628 627 739
f 629 623 740
f 739 769 632
f 631 629 740
f 636 628 739
f 626 631 740
f 741 636 739
f 632 741 739
f 742 630 629
f 632 637 741
f 742 629 631
f 643 636 741
f 742 631 633
f 634 630 742
f 741 637 641
f 743 634 742
f 743 742 633
f 645 741 641
f 650 643 741
f 645 650 741
f 639 743 638
f 650 657 643
f 745 743 639
f 744 650 654
f 745 646 743
f 657 650 744
f 666 657 744
f 644 640 620
f 653 646 745
f 655 653 745
f 660 666 744
f 647 640 644
f 655 745 652
f 651 642 647
f 666 660 668
f 655 662 653
f 746 670 666
f 647 644 648
f 659 747 655
f 747 662 655
f 746 666 668
f 668 673 746
f 748 647 648
f 747 659 663
f 658 651 647
f 748 658 647
f 746 681 670
f 748 648 656
f 663 669 747
f 673 675 746
f 749 658 748
f 747 672 662
f 749 748 656
f 681 746 675
f 750 672 747
f 750 747 669
f 749 667 658
f 685 681 675
f 664 749 656
f 750 669 674
f 751 667 749
f 677 672 750
f 752 684 681
f 664 751 749
f 752 681 685
f 695 684 752
f 754 677 750
f 754 674 677
f 755 751 664
f 676 671 751
f 752 753 695
f 682 754 750
f 687 674 754
f 676 751 755
f 680 671 676
f 682 689 754
f 693 687 754
f 756 680 676
f 689 693 754
f 679 683 676
f 756 676 683
f 689 694 693
f 683 686 756
f 686 692 756
f 757 692 686
f 690 757 686
f 699 693 694
f 700 699 694
f 691 757 690
f 696 757 691
f 706 699 700
f 701 698 692
f 701 692 757
f 758 704 699
f 701 757 696
f 706 758 699
f 709 704 758
f 702 701 696
f 759 705 701
f 702 759 701
f 708 759 702
f 708 702 707
f 758 717 709
f 713 715 758
f 711 759 708
f 760 711 708
f 760 708 710
f 761 717 758
f 761 758 715
f 722 717 761
f 761 715 719
f 760 710 714
f 760 716 711
f 719 762 761
f 762 722 761
f 763 716 760
f 762 719 723
f 714 763 760
f 718 763 714
f 763 720 716
f 725 762 723
f 729 722 762
f 721 763 718
f 725 729 762
f 725 731 729
f 764 720 763
f 721 764 763
f 764 724 720
f 765 725 728
f 765 731 725
f 765 728 732
f 732 735 765
f 766 730 724
f 766 724 764
f 766 764 727
f 767 731 765
f 735 767 765
f 737 731 767
f 727 733 766
f 735 619 767
f 734 766 733
f 768 736 766
f 767 616 737
f 734 768 766
f 619 622 767
f 738 768 734
f 616 767 622
f 768 621 736
f 622 625 616
f 627 616 625
f 769 627 625
f 768 740 621
f 768 618 617
f 617 740 768
f 740 623 621
f 769 625 628
f 739 627 769
f 824 823 780
f 781 824 780
f 781 780 782
f 783 781 782
f 784 217 776
f 784 776 777
f 784 777 778
f 785 778 779
f 785 784 778
f 785 779 775
f 220 785 775
f 786 820 787
f 786 806 820
f 788 786 787
f 788 787 789
f 805 788 789
f 770 136 790
f 770 818 136
f 772 770 790
f 773 772 790
f 773 790 791
f 774 773 791
f 771 774 791
f 771 791 90
f 792 793 794
f 795 792 794
f 795 794 796
f 797 795 796
f 797 796 798
f 800 803 801
f 800 799 803
f 802 800 801
f 804 805 801
f 806 804 803
f 801 805 788
f 801 788 786
f 806 803 786
f 806 805 804
f 803 801 786
f 793 808 799
f 793 807 808
f 807 802 808
f 807 798 802
f 802 798 796
f 802 796 800
f 800 796 794
f 793 799 794
f 799 800 794
f 802 801 804
f 808 802 804
f 808 804 803
f 799 808 803
f 809 797 798
f 809 798 807
f 810 809 807
f 810 807 793
f 792 810 793
f 818 797 816
f 774 771 810
f 773 774 810
f 795 792 813
f 792 812 813
f 795 813 815
f 792 771 812
f 773 810 809
f 795 815 816
f 770 797 818
f 810 771 792
f 770 809 797
f 797 795 816
f 772 773 809
f 772 809 770
f 771 90 811
f 812 771 811
f 813 812 811
f 813 811 814
f 815 813 814
f 816 815 814
f 816 814 817
f 818 816 817
f 818 817 136
f 805 789 819
f 806 805 819
f 806 819 820
f 224 220 775
f 225 775 836
f 225 224 775
f 226 225 836
f 228 226 836
f 229 836 821
f 229 228 836
f 214 229 821
f 212 214 821
f 209 212 821
f 222 821 822
f 222 209 821
f 221 222 822
f 216 221 822
f 213 822 835
f 213 216 822
f 210 213 835
f 211 210 835
f 230 211 835
f 227 230 835
f 217 227 835
f 217 835 776
f 835 789 822
f 787 836 821
f 787 775 836
f 779 820 819
f 820 775 787
f 787 821 822
f 778 779 819
f 820 779 775
f 776 789 835
f 777 778 819
f 776 819 789
f 789 787 822
f 776 777 819
f 783 782 823
f 824 783 823
f 825 826 827
f 811 826 825
f 811 143 179
f 811 179 825
f 828 143 179
f 829 143 828
f 830 829 828
f 830 828 831
f 140 830 831
f 140 831 184
f 817 140 184
f 817 184 832
f 832 833 834
f 817 833 832
f 228 229 827
f 226 228 827
f 216 834 782
f 216 213 834
f 825 225 226
f 224 225 825
f 780 782 834
f 230 832 211
f 221 216 782
f 221 782 823
f 227 832 230
f 227 184 832
f 827 780 834
f 827 823 780
f 222 221 823
f 179 220 224
f 179 785 220
f 179 224 825
f 217 184 227
f 209 222 823
f 828 785 179
f 827 825 226
f 828 831 784
f 828 784 785
f 832 834 211
f 784 184 217
f 784 831 184
f 212 209 823
f 214 212 823
f 214 823 827
f 213 210 834
f 229 214 827
f 211 834 210
f 826 834 827
f 826 833 834
f 814 833 783
f 814 817 833
f 783 833 781
f 826 781 833
f 826 824 781
f 814 783 824
f 143 90 811
f 143 791 90
f 136 140 817
f 829 791 143
f 829 830 790
f 829 790 791
f 790 830 140
f 790 140 136
f 811 814 824
f 811 824 826
f 847 892 848
f 849 847 848
f 850 329 843
f 850 843 844
f 850 844 845
f 851 850 845
f 851 845 846
f 851 846 842
f 357 851 842
f 852 885 853
f 854 852 853
f 854 853 855
f 856 854 855
f 856 855 857
f 837 396 858
f 837 883 396
f 839 837 858
f 840 839 858
f 840 858 859
f 841 840 859
f 838 841 859
f 838 859 392
f 860 873 861
f 862 860 861
f 862 861 863
f 864 862 863
f 864 863 865
f 874 872 866
f 867 874 866
f 868 867 866
f 869 870 856
f 871 869 872
f 871 872 852
f 872 866 852
f 866 856 854
f 869 856 866
f 871 870 869
f 866 854 852
f 873 875 876
f 873 876 874
f 875 865 868
f 868 865 863
f 868 863 867
f 875 868 876
f 867 863 861
f 873 874 861
f 874 867 861
f 868 866 869
f 876 868 869
f 876 869 872
f 874 876 872
f 877 864 865
f 877 865 875
f 878 875 873
f 878 877 875
f 860 878 873
f 883 864 882
f 841 838 878
f 840 841 878
f 862 860 880
f 860 879 880
f 862 880 881
f 860 838 879
f 840 878 877
f 862 881 882
f 837 864 883
f 864 862 882
f 878 838 860
f 837 877 864
f 839 840 877
f 839 877 837
f 838 392 403
f 879 403 406
f 879 838 403
f 879 406 386
f 879 386 385
f 880 385 388
f 880 879 385
f 880 388 391
f 880 391 397
f 881 397 398
f 881 880 397
f 881 398 384
f 881 384 387
f 882 387 389
f 882 881 387
f 882 389 405
f 883 404 402
f 883 405 404
f 883 882 405
f 883 402 401
f 883 401 400
f 883 400 396
f 870 856 857
f 870 857 884
f 871 870 884
f 871 884 885
f 852 871 885
f 886 357 842
f 886 842 903
f 887 886 903
f 887 903 904
f 887 904 888
f 889 887 888
f 889 888 843
f 329 889 843
f 843 855 888
f 853 842 903
f 855 903 904
f 855 853 903
f 845 846 884
f 885 842 853
f 885 846 842
f 843 857 855
f 888 855 904
f 845 884 857
f 844 857 843
f 884 846 885
f 844 845 857
f 890 849 848
f 890 848 891
f 890 891 892
f 847 890 892
f 886 893 894
f 895 893 886
f 895 374 361
f 895 361 886
f 896 374 361
f 897 374 896
f 898 897 896
f 898 896 899
f 369 898 899
f 369 899 364
f 900 369 364
f 900 364 889
f 889 901 902
f 900 901 889
f 887 902 848
f 894 848 902
f 894 892 848
f 887 848 891
f 361 357 886
f 361 851 357
f 329 364 889
f 896 851 361
f 896 899 851
f 851 899 850
f 850 364 329
f 850 899 364
f 887 891 892
f 887 892 894
f 886 887 894
f 889 902 887
f 893 902 894
f 893 901 902
f 385 388 893
f 386 385 893
f 389 901 849
f 389 405 901
f 389 849 890
f 895 406 386
f 403 406 895
f 401 900 402
f 387 389 890
f 847 849 901
f 400 369 900
f 400 900 401
f 893 847 901
f 374 392 403
f 374 859 392
f 384 387 890
f 374 403 895
f 396 369 400
f 398 384 890
f 897 859 374
f 893 895 386
f 900 901 402
f 897 898 859
f 859 898 858
f 858 898 369
f 858 369 396
f 397 398 890
f 397 890 847
f 391 397 847
f 391 847 893
f 405 404 901
f 388 391 893
f 402 901 404
f 906 905 924
f 906 924 907
f 908 906 907
f 908 907 909
f 910 908 909
f 910 909 923
f 913 911 912
f 913 912 914
f 909 913 914
f 910 917 915
f 925 926 916
f 910 915 908
f 917 925 916
f 910 925 917
f 908 915 906
f 918 927 905
f 916 926 927
f 916 927 918
f 906 918 905
f 915 918 906
f 919 917 916
f 915 919 918
f 920 914 921
f 920 909 914
f 920 921 912
f 911 920 912
f 924 907 913
f 911 920 922
f 907 909 913
f 924 911 922
f 909 923 920
f 920 923 922
f 924 913 911
f 925 910 923
f 926 923 922
f 926 925 923
f 927 926 922
f 927 922 924
f 905 927 924
f 914 912 921
f 919 917 915
f 918 919 916
f 929 928 947
f 929 947 930
f 931 929 930
f 932 931 930
f 932 930 933
f 945 944 934
f 935 945 934
f 935 934 936
f 937 935 936
f 948 949 940
f 932 939 938
f 932 938 931
f 932 940 939
f 932 948 940
f 931 938 929
f 941 950 928
f 940 949 950
f 940 950 941
f 929 941 928
f 938 941 929
f 942 938 939
f 941 942 940
f 943 937 936
f 943 936 944
f 945 943 944
f 930 937 935
f 943 933 946
f 947 945 946
f 937 933 943
f 945 943 946
f 947 935 945
f 947 930 935
f 937 930 933
f 948 932 933
f 948 933 946
f 949 948 946
f 950 949 946
f 950 946 947
f 928 950 947
f 936 934 944
f 942 940 939
f 942 941 938
