v 0.002373 0.009465 -0.038948
v 0.000765 0.006123 -0.041694
v 0.005013 0.013723 -0.044630
v 0.001632 0.012892 -0.039137
v -0.003875 0.013685 -0.047000
v 0.004866 0.006475 -0.046165
v 0.001695 0.007401 -0.039145
v -0.000495 0.009817 -0.018686
v -0.000708 0.009232 -0.017685
v 0.001555 0.011062 -0.019085
v 0.000745 0.010210 -0.018799
v -0.000788 0.011062 0.006731
v -0.004504 0.008971 0.008562
v -0.000645 0.010586 0.009136
v 0.000667 0.011062 0.006435
v 0.004009 0.009652 0.005798
v -0.001457 0.006446 -0.048802
v -0.000524 0.013807 -0.045316
v 0.001066 0.006486 -0.045612
v 0.001007 0.013946 -0.048382
v 0.002552 0.011062 -0.029974
v 0.003900 0.009231 -0.022281
v -0.005462 0.010925 0.007031
v 0.007132 0.010147 -0.005161
v 0.002492 0.009231 -0.029977
v -0.005604 0.008730 -0.019195
v 0.007546 0.008608 0.008756
v -0.001788 0.013983 -0.041579
v -0.003979 0.006664 -0.042935
v -0.005453 0.012893 0.008933
v 0.008034 0.011761 0.007808
v -0.005399 0.011626 -0.019236
v -0.000689 0.010989 -0.023610
v 0.002377 0.010827 -0.038949
v -0.000957 0.008936 -0.023757
v 0.003128 0.004192 -0.012176
v -0.002679 0.004191 -0.011959
v -0.005189 0.004200 0.005075
v 0.003369 0.001864 -0.005589
v 0.005445 0.004148 0.004794
v 0.005587 0.000977 0.001085
v -0.004347 0.000536 0.001718
v -0.000587 0.001040 0.005735
v -0.000623 0.000022 -0.004844
v -0.001032 0.000815 -0.008716
v -0.005197 0.016224 -0.007637
v -0.005294 0.022650 -0.015102
v -0.005168 0.019625 -0.010875
v -0.005246 0.019657 -0.001935
v -0.005232 0.015744 -0.003541
v -0.005209 0.019718 -0.006159
v -0.005162 0.016172 -0.011682
v -0.005146 0.019731 -0.013403
v -0.004869 0.021269 0.003049
v -0.003637 0.020659 0.005190
v -0.005550 0.020757 0.004165
v 0.001084 0.008682 0.007584
v 0.003826 0.008972 0.008309
v -0.001583 0.009140 0.007570
v -0.004651 0.008616 0.008361
v -0.000845 0.009092 0.005414
v -0.001032 0.007790 0.007350
v 0.000276 0.007790 0.005937
v -0.005241 0.008405 0.005236
v 0.005294 0.008121 0.006250
v 0.000014 0.007790 -0.016942
v 0.005222 0.007790 -0.019828
v 0.005205 0.008791 -0.018025
v -0.004410 0.008612 -0.019598
v 0.000716 0.008760 -0.019325
v 0.001230 0.008655 -0.017524
v 0.002397 0.008951 -0.016887
v -0.001708 0.009066 -0.017804
v -0.005020 0.008418 -0.016500
v -0.003173 0.022711 -0.016069
v -0.000322 0.021869 0.003903
v 0.005576 0.020791 0.003980
v 0.005522 0.022626 -0.016335
v 0.003867 0.022739 -0.014776
v -0.005076 0.004323 -0.016339
v 0.005516 0.004322 -0.016249
v 0.003115 0.020723 0.005070
v 0.001243 0.021754 0.005447
v 0.000815 0.022415 0.004108
v 0.000621 0.021832 0.004701
v 0.000732 0.021186 0.004250
v -0.000938 0.021307 0.004989
v 0.002005 0.000442 -0.000332
v 0.000699 0.000011 -0.006445
v -0.001771 0.000379 -0.000951
v 0.000621 0.021832 0.004701
v -0.001234 -0.002415 -0.000378
v 0.000572 -0.002628 0.001408
v 0.000788 -0.002458 -0.001277
v 0.000080 0.000979 -0.000035
v 0.000682 0.022415 0.004435
v 0.000177 0.022297 0.005459
v 0.001527 0.007272 0.006451
v -0.000542 0.007839 0.006190
v -0.000290 0.007313 0.008422
v -0.000031 0.013539 0.006909
v -0.001290 0.006334 0.006227
v 0.000820 0.007679 -0.019170
v 0.001409 0.007179 -0.016837
v -0.000690 0.007875 -0.018006
v 0.000184 0.013539 -0.018079
v -0.001061 0.006278 -0.018667
f 17 5 20
f 17 29 5
f 6 17 20
f 6 20 3
f 10 8 9
f 10 9 11
f 14 12 13
f 15 14 16
f 19 20 28
f 2 19 28
f 17 2 28
f 17 28 18
f 19 17 18
f 19 18 20
f 33 25 35
f 33 21 25
f 10 35 22
f 10 33 35
f 32 9 23
f 16 31 23
f 21 22 25
f 21 10 22
f 24 9 32
f 12 15 16
f 12 16 13
f 25 22 24
f 1 35 25
f 14 13 27
f 16 23 13
f 16 14 27
f 1 25 24
f 27 24 16
f 26 13 9
f 9 13 23
f 8 26 9
f 35 26 8
f 24 11 9
f 35 8 11
f 22 35 11
f 22 11 24
f 21 10 24
f 34 33 21
f 12 23 14
f 34 21 24
f 31 15 14
f 31 24 16
f 32 24 10
f 31 23 15
f 15 23 12
f 10 8 32
f 11 32 8
f 33 32 11
f 10 33 11
f 1 35 7
f 7 24 27
f 1 24 7
f 29 2 7
f 4 3 28
f 2 6 7
f 29 28 5
f 3 4 31
f 34 32 33
f 4 32 34
f 32 30 23
f 30 23 14
f 31 30 14
f 34 31 24
f 4 31 34
f 26 30 13
f 26 32 30
f 32 26 35
f 4 35 7
f 4 32 35
f 28 29 7
f 4 28 7
f 6 31 27
f 3 31 6
f 30 13 27
f 31 30 27
f 6 7 27
f 20 5 18
f 3 20 28
f 18 5 28
f 6 17 19
f 17 29 2
f 6 19 2
f 39 37 36
f 40 39 36
f 40 36 81
f 38 80 37
f 80 81 36
f 37 80 36
f 37 44 42
f 38 37 42
f 38 42 43
f 40 38 43
f 40 43 41
f 47 48 51
f 47 53 48
f 47 51 54
f 47 52 53
f 50 38 64
f 47 74 52
f 50 64 56
f 52 74 46
f 54 49 56
f 46 38 50
f 51 52 46
f 49 50 56
f 46 80 38
f 53 52 48
f 51 50 49
f 51 46 50
f 51 49 54
f 48 52 51
f 74 80 46
f 61 57 58
f 60 57 59
f 60 58 57
f 62 59 61
f 63 62 61
f 57 63 61
f 64 65 63
f 62 57 65
f 64 63 62
f 57 63 65
f 60 62 65
f 60 64 62
f 68 74 66
f 69 70 66
f 69 67 70
f 70 67 71
f 71 67 68
f 66 71 68
f 74 69 66
f 70 66 73
f 70 71 72
f 73 72 71
f 73 70 68
f 69 73 68
f 54 75 47
f 77 75 54
f 77 79 75
f 87 76 54
f 87 54 55
f 77 54 76
f 77 76 86
f 77 86 82
f 64 55 56
f 61 55 64
f 58 82 55
f 58 55 61
f 65 77 82
f 65 82 58
f 62 57 59
f 68 40 81
f 68 77 40
f 78 77 68
f 79 77 78
f 77 65 40
f 60 65 58
f 38 40 65
f 64 38 65
f 66 71 73
f 74 68 81
f 80 74 81
f 69 68 67
f 75 74 47
f 75 73 74
f 79 72 73
f 79 73 75
f 79 68 72
f 78 68 79
f 55 82 83
f 55 83 87
f 61 60 59
f 61 64 60
f 40 41 39
f 73 69 74
f 68 70 72
f 87 83 86
f 82 86 84
f 82 84 83
f 85 83 84
f 86 85 84
f 37 45 44
f 37 39 45
f 54 55 56
f 42 41 43
f 42 88 41
f 88 39 41
f 89 39 88
f 44 89 88
f 89 45 39
f 44 88 90
f 44 90 42
f 45 89 44
f 91 85 86
f 91 83 85
f 86 83 91
f 88 93 94
f 88 42 93
f 90 88 94
f 42 90 93
f 90 94 92
f 90 92 93
f 95 93 94
f 95 94 92
f 95 92 93
f 76 87 96
f 87 97 96
f 85 76 96
f 97 85 96
f 87 86 97
f 91 85 97
f 91 76 85
f 97 76 91
f 86 76 97
f 102 99 98
f 99 100 101
f 98 99 101
f 100 98 101
f 102 100 98
f 102 100 99
f 104 107 103
f 107 105 103
f 103 105 106
f 104 103 106
f 105 104 106
f 107 104 105
