v -0.053933 -0.032845 -0.005785
v -0.055379 -0.031871 -0.005513
v -0.031496 -0.031717 0.007835
v -0.031165 -0.033391 0.005340
v -0.032847 -0.031053 0.006545
v -0.033461 -0.032882 0.007977
v -0.033785 -0.030222 0.011303
v 0.055371 -0.030255 -0.006752
v 0.053020 -0.033038 -0.008282
v 0.053110 -0.031208 -0.005234
v 0.053151 -0.033038 -0.004702
v 0.033266 -0.031172 0.007919
v 0.032763 -0.033002 0.006850
v 0.033241 -0.031172 0.006463
v 0.031358 -0.032999 0.007662
v 0.051521 -0.031926 -0.008263
v -0.036229 -0.032860 0.010616
v -0.013476 -0.031853 -0.001377
v -0.002440 -0.029899 0.001838
v -0.002356 -0.030632 -0.001839
v -0.000675 -0.030497 -0.000643
v 0.034564 -0.032854 0.010289
v 0.056283 -0.033308 0.001021
v 0.013381 -0.031875 -0.001305
v 0.020602 -0.033022 -0.000059
v 0.028278 -0.032240 -0.002564
v 0.033767 -0.033003 0.006249
v 0.034095 -0.030040 0.012675
v 0.031492 -0.031169 0.008200
v 0.052739 -0.031207 -0.003690
v 0.056962 -0.031215 -0.000139
v 0.022871 -0.027427 -0.001577
v -0.053808 -0.032845 -0.003998
v -0.053515 -0.032846 -0.003192
v -0.052437 -0.032849 -0.009326
v -0.026518 -0.031568 -0.002305
v -0.053319 -0.031016 -0.003771
v -0.057494 -0.029278 -0.000531
v -0.053654 -0.029913 -0.008370
v 0.057729 -0.026640 -0.004846
v 0.058945 -0.026643 -0.001840
v 0.056081 -0.026637 -0.007638
v 0.054037 -0.026634 -0.010154
v 0.057910 -0.026641 0.000839
v 0.035099 -0.026599 0.014009
v 0.036736 -0.035256 0.012916
v 0.022109 -0.026879 -0.000847
v 0.032041 -0.026594 0.013282
v -0.003526 -0.026530 0.002793
v -0.023038 -0.026822 -0.001112
v -0.032131 -0.026478 0.013282
v -0.057999 -0.026431 0.000839
v -0.035188 -0.026472 0.014009
v -0.056111 -0.033299 0.001515
v -0.036902 -0.035271 0.012957
v -0.056170 -0.026434 -0.007638
v -0.054126 -0.026438 -0.010154
v -0.057819 -0.026431 -0.004846
v -0.059034 -0.026429 -0.001840
v -0.051773 -0.026442 -0.010765
v -0.024670 -0.026497 -0.003409
v 0.051684 -0.026629 -0.010765
v -0.053806 -0.026439 -0.010436
v -0.053438 -0.026439 -0.010653
v -0.053037 -0.026440 -0.010798
v -0.052616 -0.026441 -0.010866
v -0.052190 -0.026442 -0.010855
v -0.059143 -0.026429 -0.001142
v -0.059093 -0.026429 -0.000667
v -0.058945 -0.026429 -0.000212
v -0.058706 -0.026430 0.000202
v -0.058386 -0.026430 0.000558
v -0.034795 -0.026473 0.014189
v -0.034375 -0.026474 0.014291
v -0.033943 -0.026475 0.014313
v -0.033515 -0.026475 0.014253
v -0.033106 -0.026476 0.014114
v -0.032730 -0.026477 0.013900
v -0.032401 -0.026477 0.013620
v 0.032312 -0.026594 0.013620
v 0.032641 -0.026595 0.013900
v 0.033016 -0.026596 0.014114
v 0.033426 -0.026596 0.014253
v 0.033854 -0.026597 0.014313
v 0.034285 -0.026598 0.014291
v 0.034705 -0.026599 0.014189
v 0.052101 -0.026630 -0.010855
v 0.052527 -0.026631 -0.010866
v 0.052948 -0.026632 -0.010798
v 0.053349 -0.026632 -0.010653
v 0.053716 -0.026633 -0.010436
v 0.058370 -0.026641 -0.000340
v 0.016330 -0.032123 -0.000139
v -0.014180 -0.026904 -0.000630
v -0.003623 -0.026529 0.004655
v -0.002524 -0.026531 0.003687
v -0.059095 -0.026429 -0.001612
v -0.059131 -0.026429 -0.001378
v 0.002933 -0.026541 0.002810
v -0.022246 -0.032711 -0.001042
v -0.016012 -0.032475 -0.000161
v 0.023108 -0.032871 -0.001438
v 0.013362 -0.026753 -0.001308
v -0.013756 -0.026562 -0.001980
v 0.003399 -0.028830 0.003295
v -0.003274 -0.028818 0.003703
v -0.007729 -0.030782 0.000103
v -0.008658 -0.031001 -0.001672
v 0.008259 -0.030981 0.000461
v 0.007871 -0.031001 -0.001732
v 0.005498 -0.030736 -0.001806
v 0.006160 -0.030812 0.000544
v 0.002025 -0.030545 -0.001595
v 0.004052 -0.030734 0.000503
v 0.001538 -0.030608 0.000488
v -0.002066 -0.030381 -0.000051
v -0.004292 -0.030497 0.000111
v -0.004148 -0.030564 -0.001398
v -0.005758 -0.030632 0.000682
v -0.006547 -0.030805 -0.001580
v -0.048380 -0.041687 0.002396
v -0.048278 -0.041690 -0.003512
v -0.044084 -0.042189 0.000669
v -0.044429 -0.041623 -0.002711
v -0.040027 -0.040322 0.001021
v -0.053949 -0.021118 0.001356
v -0.035974 -0.019363 0.009591
v -0.052347 -0.019928 -0.002516
v -0.053603 -0.020420 -0.002946
v -0.052629 -0.021101 -0.003381
v -0.052613 -0.020247 -0.003309
v -0.052613 -0.020247 -0.003309
v -0.052268 -0.020227 -0.004467
v -0.038027 -0.019499 0.010743
v -0.048341 -0.044675 -0.002988
v -0.049019 -0.043433 -0.000777
v -0.047218 -0.044501 -0.000497
v -0.053094 -0.019848 -0.003986
v -0.054749 -0.039921 0.000137
v -0.042643 -0.041813 0.002915
v -0.033597 -0.019438 0.002947
v -0.031526 -0.019405 0.001991
v -0.049585 -0.039536 -0.007941
v -0.039168 -0.037911 0.006506
v -0.043953 -0.022437 -0.005146
v -0.042569 -0.026353 -0.004343
v -0.040643 -0.022407 -0.003236
v -0.029759 -0.033084 0.004926
v -0.035746 -0.022428 -0.000408
v -0.036647 -0.026037 -0.000925
v -0.050542 -0.021297 -0.008313
v -0.048979 -0.021219 -0.007069
v -0.057549 -0.033014 -0.002521
v -0.055487 -0.033656 0.000406
v -0.054612 -0.033286 -0.003194
v -0.052850 -0.032993 -0.006240
v -0.054586 -0.034285 -0.005914
v -0.053277 -0.034287 -0.004349
v -0.051888 -0.033520 -0.009417
v -0.058312 -0.034278 -0.001516
v -0.033670 -0.033502 0.012350
v -0.036637 -0.033703 0.011294
v -0.033616 -0.034323 0.007356
v -0.032291 -0.034325 0.008635
v -0.031538 -0.033463 0.006512
v -0.033562 -0.033014 0.009217
v -0.030559 -0.033994 0.002709
v -0.054884 -0.021397 -0.000552
v -0.033839 -0.038389 0.001063
v -0.037675 -0.038133 0.010770
v -0.051232 -0.020775 -0.004540
v 0.036118 -0.038047 0.002088
v 0.042084 -0.040749 0.004595
v 0.055659 -0.036815 0.000484
v 0.039066 -0.038053 0.007200
v 0.048172 -0.040116 -0.007823
v 0.051333 -0.041918 0.001607
v 0.053396 -0.041266 -0.003874
v 0.041470 -0.041279 -0.000345
v 0.049220 -0.022606 0.004106
v 0.037999 -0.019609 0.010601
v 0.041547 -0.022607 0.008537
v 0.047822 -0.026517 0.004909
v 0.045911 -0.022564 0.006017
v 0.053795 -0.021293 0.001280
v 0.043353 -0.025758 0.007491
v 0.033598 -0.033244 0.012195
v 0.039656 -0.023851 0.009627
v 0.054835 -0.021686 -0.000718
v 0.053075 -0.033273 -0.009561
v 0.053861 -0.033556 -0.006221
v 0.055600 -0.033219 -0.003810
v 0.051787 -0.033280 -0.003634
v 0.057769 -0.033662 -0.001630
v 0.053660 -0.033566 -0.003970
v 0.055209 -0.034483 -0.004586
v 0.050903 -0.034145 -0.009129
v 0.028469 -0.034435 0.004167
v 0.030791 -0.036291 0.002704
v 0.031558 -0.033437 0.006798
v 0.032381 -0.033413 0.009058
v 0.029401 -0.033249 0.005035
v 0.034193 -0.033235 0.008630
v 0.035872 -0.019486 0.009736
v 0.050517 -0.021529 -0.008167
v 0.051128 -0.020236 -0.005057
v 0.048719 -0.021392 -0.007199
v 0.032434 -0.019522 0.001355
v 0.036058 -0.036012 0.011976
v 0.032586 -0.019595 0.003635
v 0.052198 -0.021190 -0.004940
v 0.052992 -0.020510 -0.003182
v 0.051965 -0.020436 -0.004316
v 0.051865 -0.021201 -0.004244
v 0.047433 -0.041835 -0.003219
v 0.047491 -0.041866 0.000517
v 0.043378 -0.042573 0.001409
v 0.051965 -0.020436 -0.004316
v 0.049442 -0.044899 -0.000689
v 0.047979 -0.043840 -0.002409
v 0.046651 -0.044715 -0.001233
v 0.051723 -0.020498 -0.003298
v 0.052554 -0.020895 -0.004360
v -0.014376 -0.002825 -0.001727
v -0.025286 -0.002556 -0.001949
v 0.005050 0.003064 -0.001666
v -0.013969 0.002932 -0.001284
v -0.005019 -0.003835 -0.000909
v 0.004105 0.004290 -0.001949
v 0.032303 0.009407 -0.000577
v 0.033209 0.010207 -0.001949
v 0.032434 0.012801 -0.001209
v 0.032166 -0.013542 -0.000577
v 0.033655 -0.012021 -0.001949
v 0.033189 -0.009101 -0.000577
v 0.036065 -0.008434 -0.001413
v 0.039938 -0.007147 -0.000577
v 0.034678 -0.006834 -0.001949
v 0.043031 -0.005678 -0.001394
v 0.045695 -0.006033 -0.001949
v 0.045112 -0.004566 -0.000577
v 0.043505 -0.003863 -0.001949
v 0.044711 0.003737 -0.000577
v 0.044000 0.003085 -0.001949
v 0.044154 0.005602 -0.001187
v 0.042519 0.004741 -0.001949
v 0.034489 0.006015 -0.000577
v 0.035606 0.008233 -0.001173
v -0.028203 -0.000812 -0.000577
v -0.029197 0.000967 -0.001227
v -0.030543 0.000102 -0.001949
v -0.034438 0.005967 -0.000577
v -0.033311 0.008865 -0.001949
v -0.034772 0.008656 -0.001089
v -0.042694 0.003738 -0.000577
v -0.044100 0.003480 -0.001949
v -0.044120 0.007281 -0.001949
v -0.043940 0.005855 -0.001151
v -0.043288 -0.005652 -0.001146
v -0.041911 -0.005311 -0.000577
v -0.043284 -0.003715 -0.001949
v -0.045117 -0.004364 -0.000577
v -0.033774 -0.007421 -0.000577
v -0.034568 -0.006910 -0.001949
v -0.030253 -0.012016 -0.001316
v -0.032462 -0.010019 -0.001412
v -0.030979 0.009811 -0.000577
v -0.028046 0.005345 -0.001949
v -0.031089 0.012744 -0.001081
v 0.029928 -0.001291 -0.001949
v 0.030733 -0.000623 -0.000577
v 0.030196 0.000424 -0.001949
v 0.028964 0.000862 -0.000577
v 0.024393 -0.021357 0.000850
v -0.025619 -0.024873 -0.000046
v -0.025426 -0.024725 0.005830
v 0.018230 -0.034412 -0.001949
v 0.022224 -0.032991 -0.000577
v -0.030532 -0.001164 -0.000577
v -0.043032 0.004197 -0.001949
v -0.035674 0.006673 -0.000577
v 0.039621 -0.006129 -0.001949
v 0.042572 0.003905 -0.000577
v 0.039319 0.005909 -0.001949
v -0.022393 0.023257 0.002465
v -0.022756 0.025465 -0.001888
v 0.027064 0.026080 -0.001557
v 0.025348 0.024430 0.005830
v -0.022468 -0.023129 0.005830
v -0.022385 -0.025046 -0.001949
v 0.025711 -0.027332 -0.001630
v 0.025587 -0.022405 0.005830
v 0.026424 -0.022073 -0.001429
v 0.024863 0.021395 0.005830
v 0.022503 0.023187 0.002507
v 0.022503 -0.023241 0.005830
v -0.025804 0.024114 0.005830
v -0.007301 0.000993 -0.001715
v -0.022895 -0.000962 -0.001566
v 0.023111 -0.000051 -0.001538
v -0.026454 0.026061 -0.001652
v 0.014832 -0.018068 -0.000577
v 0.022428 0.032409 -0.000577
v 0.003931 -0.004839 -0.001587
v 0.025003 0.025199 -0.000308
v 0.024547 0.020763 0.000236
v 0.045091 0.007965 -0.000577
v -0.024558 0.020802 0.000369
v 0.046199 -0.000136 -0.001298
v 0.010781 -0.027122 -0.001018
v 0.010787 0.026741 -0.001059
v 0.020848 0.029279 -0.001830
v 0.010802 0.026459 -0.001441
v 0.010607 -0.026735 -0.001484
v -0.023287 -0.003819 -0.000577
v -0.022883 0.001395 -0.000881
v 0.048013 -0.005179 -0.000769
v -0.033527 0.010890 -0.000577
v 0.033736 0.007649 -0.001263
v -0.045654 0.006565 -0.000577
v 0.012019 0.022889 -0.000577
v 0.012069 0.012925 -0.001280
v 0.032681 -0.004594 -0.001374
v -0.011581 -0.023669 -0.000577
v -0.009176 -0.027394 -0.001325
v 0.022966 0.003142 -0.000768
v -0.036012 -0.007335 -0.001322
v -0.046567 -0.000229 -0.001322
v 0.024594 -0.005015 -0.001486
v -0.015787 -0.029645 -0.000951
v -0.014012 -0.032163 -0.000577
v -0.010694 0.026754 -0.001055
v -0.033136 -0.012891 -0.001147
v -0.010699 0.026414 -0.001450
v -0.022305 0.032490 -0.000577
v -0.035202 -0.008938 -0.001334
v -0.024731 0.025311 -0.000371
v 0.025582 -0.024914 0.000009
v -0.045269 -0.008201 -0.000577
v -0.025646 -0.029363 -0.001433
v -0.012063 -0.013282 -0.001280
v 0.028712 -0.001239 -0.000577
v 0.030513 -0.010726 -0.001343
v 0.030406 0.010183 -0.001560
v -0.022673 0.005057 -0.000577
v -0.014615 0.016682 -0.001041
v 0.011968 -0.001436 -0.001722
v 0.005277 -0.003416 -0.001673
v -0.007272 -0.001362 -0.001724
v -0.013140 0.003501 -0.001949
v 0.011764 0.001038 -0.001718
v 0.018523 0.034328 -0.001949
v 0.044315 0.008440 -0.001949
v -0.018286 0.034393 -0.001949
v 0.022367 0.023847 -0.001949
v -0.035868 0.007033 -0.001949
v -0.012275 -0.023265 -0.001949
v 0.022875 -0.023220 -0.001949
v -0.014219 -0.032120 -0.001949
v 0.032156 0.003199 -0.001949
v 0.035198 0.006153 -0.001949
v 0.012003 -0.013344 -0.001949
v 0.025543 0.021567 -0.001949
v -0.023746 0.021817 0.002333
v 0.025635 0.002111 -0.001949
v -0.045518 -0.005986 -0.001949
v -0.025971 -0.022376 -0.001949
v 0.033926 -0.008336 -0.001949
v 0.024625 -0.025199 0.005830
v 0.021629 -0.023702 0.001210
v -0.021587 -0.023681 0.000806
v -0.024647 -0.021684 0.002013
v 0.022408 -0.002274 -0.000673
v 0.004155 0.030571 -0.001397
v 0.026524 0.031578 -0.002305
v -0.026629 0.031790 -0.002384
v 0.059101 0.026438 -0.001612
v 0.059041 0.026439 -0.001840
v 0.059137 0.026438 -0.001378
v 0.059150 0.026438 -0.001142
v 0.052794 0.031026 -0.005351
v 0.052874 0.032859 -0.008364
v 0.056951 0.032191 -0.003493
v 0.032606 0.032893 0.006290
v 0.032252 0.031063 0.006777
v 0.033480 0.032891 0.007755
v 0.033851 0.031060 0.006892
v -0.055835 0.032202 -0.005056
v -0.053500 0.031218 -0.005637
v -0.054760 0.033051 -0.008308
v -0.032258 0.033010 0.006643
v -0.033827 0.031182 0.006662
v -0.031514 0.032017 0.008130
v -0.052304 0.031216 -0.003971
v -0.052573 0.033047 -0.004753
v 0.035993 0.032798 0.011535
v 0.013483 0.031862 -0.001377
v 0.002447 0.029908 0.001838
v -0.000127 0.030495 -0.002574
v -0.001417 0.030585 0.000285
v -0.052177 0.030580 -0.009086
v -0.013371 0.031888 -0.001308
v -0.020595 0.033031 -0.000059
v -0.057507 0.033033 -0.000724
v -0.033939 0.033013 0.006944
v 0.023532 0.033166 0.001846
v 0.016019 0.032483 -0.000162
v -0.033248 0.031181 0.008141
v -0.035284 0.030623 0.012520
v -0.053834 0.031219 -0.003964
v 0.053312 0.032855 -0.004549
v 0.052563 0.032857 -0.003934
v 0.031816 0.031838 0.008387
v 0.036293 0.032572 0.013874
v 0.056803 0.030027 -0.002129
v 0.051984 0.029502 -0.009327
v 0.034603 0.029670 0.012828
v -0.057723 0.026650 -0.004846
v -0.058938 0.026652 -0.001840
v -0.056074 0.026647 -0.007638
v -0.054030 0.026643 -0.010154
v -0.057903 0.026650 0.000839
v -0.035092 0.026609 0.014009
v -0.055592 0.032876 0.001399
v -0.036729 0.035265 0.012916
v -0.022103 0.026888 -0.000847
v -0.032035 0.026603 0.013282
v 0.003532 0.026539 0.002793
v 0.023045 0.026831 -0.001112
v 0.032137 0.026487 0.013282
v 0.058006 0.026440 0.000839
v 0.035195 0.026482 0.014009
v 0.055249 0.033541 0.001839
v 0.039579 0.040689 0.010759
v 0.056177 0.026444 -0.007638
v 0.054132 0.026447 -0.010154
v 0.057825 0.026441 -0.004846
v 0.051780 0.026452 -0.010765
v 0.024677 0.026506 -0.003409
v -0.051677 0.026639 -0.010765
v 0.053812 0.026448 -0.010436
v 0.053445 0.026449 -0.010653
v 0.053044 0.026449 -0.010798
v 0.052623 0.026450 -0.010866
v 0.052197 0.026451 -0.010855
v 0.059100 0.026438 -0.000667
v 0.058952 0.026439 -0.000212
v 0.058713 0.026439 0.000202
v 0.058393 0.026440 0.000558
v 0.034801 0.026482 0.014189
v 0.034381 0.026483 0.014291
v 0.033950 0.026484 0.014313
v 0.033521 0.026485 0.014253
v 0.033112 0.026485 0.014114
v 0.032736 0.026486 0.013900
v 0.032408 0.026487 0.013620
v -0.032305 0.026604 0.013620
v -0.032634 0.026604 0.013900
v -0.033010 0.026605 0.014114
v -0.033419 0.026606 0.014253
v -0.033847 0.026606 0.014313
v -0.034279 0.026607 0.014291
v -0.034699 0.026608 0.014189
v -0.052094 0.026639 -0.010855
v -0.052521 0.026640 -0.010866
v -0.052941 0.026641 -0.010798
v -0.053343 0.026642 -0.010653
v -0.053710 0.026642 -0.010436
v -0.058364 0.026651 -0.000340
v -0.023026 0.026582 -0.001960
v -0.016305 0.032146 -0.000148
v 0.014186 0.026913 -0.000630
v 0.022252 0.032720 -0.001042
v 0.003630 0.026539 0.004655
v 0.002530 0.026541 0.003687
v -0.002926 0.026551 0.002810
v -0.023102 0.032880 -0.001438
v -0.013355 0.026762 -0.001308
v 0.013762 0.026572 -0.001980
v -0.003392 0.028839 0.003295
v 0.003280 0.028827 0.003703
v 0.007199 0.030903 0.000356
v 0.008252 0.030890 -0.001268
v -0.006154 0.030821 0.000544
v -0.008253 0.030990 0.000462
v -0.007866 0.031011 -0.001733
v -0.005491 0.030746 -0.001806
v -0.004045 0.030743 0.000503
v 0.000679 0.030506 -0.000634
v -0.002317 0.030653 -0.001859
v 0.002364 0.030645 -0.001838
v 0.002072 0.030390 -0.000052
v 0.006560 0.030769 -0.001453
v 0.004439 0.030558 0.000289
v -0.036111 0.038056 0.002088
v -0.042066 0.040592 0.004707
v -0.041999 0.041628 -0.000035
v -0.055115 0.038097 0.000669
v -0.053998 0.041515 0.000531
v -0.048323 0.040363 -0.007751
v -0.043704 0.042149 0.002295
v -0.049213 0.022615 0.004106
v -0.047816 0.026526 0.004909
v -0.045904 0.022573 0.006017
v -0.053579 0.021372 0.000997
v -0.033549 0.033632 0.012350
v -0.041007 0.022576 0.008845
v -0.041895 0.026188 0.008329
v -0.037393 0.019520 0.009164
v -0.051848 0.033720 -0.009367
v -0.055060 0.033066 -0.005996
v -0.053293 0.033682 -0.005526
v -0.052054 0.033369 -0.006250
v -0.055033 0.033225 -0.003051
v -0.057763 0.033671 -0.001630
v -0.053737 0.034490 -0.003957
v -0.055221 0.034493 -0.005193
v -0.055370 0.033878 0.000463
v -0.033521 0.034454 0.007795
v -0.029924 0.035078 0.002574
v -0.031842 0.034450 0.006637
v -0.032176 0.034451 0.008508
v -0.030883 0.033028 0.007269
v -0.032316 0.033196 0.005718
v -0.033924 0.033156 0.008909
v -0.036528 0.033831 0.011303
v -0.036499 0.019553 0.011216
v -0.032544 0.019557 0.003632
v -0.050501 0.021757 -0.008341
v -0.054976 0.021619 -0.000542
v -0.048915 0.021258 -0.007017
v -0.032457 0.019578 0.001337
v -0.038736 0.038530 0.009786
v -0.051858 0.020982 -0.005316
v -0.052858 0.020467 -0.003050
v -0.051986 0.019863 -0.004270
v -0.051958 0.020445 -0.004316
v -0.051940 0.021237 -0.004300
v -0.047669 0.041820 -0.003310
v -0.049859 0.041910 -0.000389
v -0.046555 0.041841 -0.000415
v -0.051958 0.020445 -0.004316
v -0.049507 0.044780 -0.000781
v -0.048141 0.043677 -0.002470
v -0.046706 0.044774 -0.001230
v -0.051484 0.020414 -0.003987
v -0.052669 0.021316 -0.004162
v 0.039174 0.037921 0.006506
v 0.037682 0.038143 0.010770
v 0.040063 0.040547 0.000583
v 0.050116 0.037893 -0.008550
v 0.053775 0.039936 0.001745
v 0.051547 0.041839 -0.003515
v 0.044237 0.041158 -0.005416
v 0.043107 0.041852 0.002864
v 0.043959 0.022447 -0.005146
v 0.032418 0.019373 0.001363
v 0.041604 0.026224 -0.003782
v 0.040650 0.022416 -0.003236
v 0.048710 0.021155 -0.007827
v 0.029018 0.033519 0.004281
v 0.035753 0.022438 -0.000408
v 0.035524 0.025947 -0.000273
v 0.055493 0.033665 0.000406
v 0.055233 0.033309 -0.004032
v 0.057362 0.033108 -0.002296
v 0.053982 0.032910 -0.006602
v 0.052269 0.033103 -0.005830
v 0.053230 0.034297 -0.005151
v 0.057225 0.034289 -0.003827
v 0.051895 0.033530 -0.009417
v 0.032571 0.034334 0.006534
v 0.033386 0.034333 0.008449
v 0.034905 0.033564 0.012022
v 0.031876 0.033354 0.006729
v 0.031107 0.032954 0.008024
v 0.034124 0.033050 0.008681
v 0.031395 0.033488 0.003931
v 0.032787 0.019515 0.003538
v 0.055185 0.021341 -0.000130
v 0.053528 0.021220 0.000965
v 0.050811 0.021348 -0.007509
v 0.036982 0.019460 0.011307
v 0.033845 0.038398 0.001063
v 0.037048 0.019414 0.009088
v 0.053295 0.019906 -0.003427
v 0.053434 0.020438 -0.002598
v 0.052275 0.020502 -0.004679
v 0.052620 0.020256 -0.003309
v 0.052128 0.020666 -0.002772
v 0.048885 0.041670 0.000483
v 0.044678 0.041725 -0.000267
v 0.052620 0.020256 -0.003309
v 0.047112 0.044453 -0.002146
v 0.048376 0.044658 0.000100
v 0.048992 0.043479 -0.002355
v 0.051619 0.020186 -0.003633
v 0.052952 0.020722 -0.003797
v 0.055834 0.035157 -0.005285
v 0.052727 0.034815 -0.004607
v 0.054233 0.028547 -0.004962
v 0.031514 0.035115 0.006391
v 0.033792 0.034948 0.008743
v 0.032592 0.028586 0.007532
v -0.034059 0.035011 0.006998
v -0.032506 0.035124 0.009165
v -0.031274 0.035180 0.006594
v -0.032548 0.028703 0.007532
v -0.055839 0.035257 -0.004867
v -0.052814 0.034806 -0.003381
v -0.052986 0.035160 -0.005867
v -0.054189 0.028743 -0.004962
v 0.053733 -0.035257 -0.003441
v 0.053011 -0.035272 -0.006118
v 0.055721 -0.034925 -0.005186
v 0.054208 -0.028733 -0.004947
v 0.031763 -0.035102 0.009051
v 0.031316 -0.034958 0.006644
v 0.034059 -0.035312 0.007181
v 0.032567 -0.028694 0.007548
v -0.031646 -0.035092 0.008863
v -0.034179 -0.034841 0.007403
v -0.031842 -0.035018 0.006049
v -0.032573 -0.028576 0.007548
v -0.053543 -0.035257 -0.003406
v -0.055790 -0.034842 -0.004674
v -0.053637 -0.034837 -0.006387
v -0.054214 -0.028537 -0.004947
v 0.052733 0.012606 -0.006888
v 0.050114 0.012525 -0.009014
v 0.035875 0.005364 0.012024
v 0.057450 0.014216 -0.000406
v 0.038765 -0.011755 0.007945
v 0.051456 -0.012724 -0.010285
v 0.052526 -0.026631 -0.010048
v 0.058682 -0.026642 -0.000736
v 0.033706 -0.026597 0.013536
v 0.046139 0.014567 0.006979
v 0.044304 -0.014410 0.008217
v 0.057655 0.013296 0.000590
v 0.053832 -0.015178 -0.009998
v 0.053587 0.014796 -0.010403
v 0.052587 0.026450 -0.010046
v 0.058525 0.026440 -0.001022
v 0.033856 0.026484 0.013557
v 0.053553 -0.013161 -0.007229
v 0.058282 -0.013822 -0.000053
v 0.036495 -0.005378 0.012854
v 0.046158 0.015495 0.005836
v 0.034257 0.001615 0.013478
v 0.046334 -0.015121 0.005769
v 0.056896 -0.014244 0.000200
v 0.052482 -0.013708 -0.008808
v 0.053463 0.013788 -0.008315
v 0.051441 0.013025 -0.009403
v -0.053400 -0.013040 -0.007203
v -0.050080 -0.012351 -0.008583
v -0.035868 -0.005355 0.012024
v -0.057444 -0.014207 -0.000406
v -0.038758 0.011764 0.007945
v -0.051450 0.012733 -0.010284
v -0.052520 0.026640 -0.010048
v -0.058675 0.026651 -0.000736
v -0.033700 0.026606 0.013537
v -0.046132 -0.014558 0.006979
v -0.044297 0.014420 0.008217
v -0.058244 -0.013528 0.000066
v -0.053901 0.015225 -0.009948
v -0.053095 -0.014513 -0.010586
v -0.052581 -0.026441 -0.010046
v -0.058518 -0.026430 -0.001022
v -0.033850 -0.026475 0.013557
v -0.053547 0.013172 -0.007228
v -0.058188 0.013803 0.000037
v -0.036488 0.005387 0.012854
v -0.046152 -0.015490 0.005840
v -0.034247 -0.001606 0.013493
v -0.046328 0.015131 0.005769
v -0.056890 0.014254 0.000200
v -0.052476 0.013717 -0.008808
v -0.053457 -0.013778 -0.008315
v -0.051435 -0.013016 -0.009403
v -0.001502 0.014204 0.020383
v -0.031203 0.029979 0.010605
v -0.004173 -0.028755 0.001369
v 0.002603 -0.028776 0.001349
v 0.028515 -0.030934 0.011191
v 0.018818 -0.031622 0.009793
v -0.029578 0.032116 0.010962
v -0.020223 0.032617 0.009780
v 0.002858 0.029737 0.001397
v -0.004121 0.029755 0.001397
v 0.022372 -0.031456 0.001204
v -0.023837 -0.031362 0.001235
v 0.027963 0.032126 0.008837
v 0.022490 0.032345 0.001233
v -0.018913 0.022204 0.020308
v 0.017672 0.022070 0.020314
v 0.030299 0.028341 0.014082
v 0.017449 -0.021161 0.020326
v 0.030665 -0.025064 0.014429
v 0.004878 -0.009819 0.020378
v -0.001553 -0.013109 0.020384
v -0.018902 -0.021167 0.020306
v -0.020090 -0.031479 0.009972
v -0.030040 -0.030927 0.010506
v 0.018704 0.032462 0.009972
v -0.001116 0.030058 0.012788
v -0.031891 -0.025447 0.014507
v -0.031982 0.026367 0.014369
v 0.030554 0.028557 0.011696
v 0.029951 -0.028654 0.010645
v -0.023738 0.032431 0.001210
v -0.031821 -0.027814 0.011539
v 0.017824 0.030961 0.010246
v 0.029445 0.027551 0.013048
v -0.027596 -0.030518 0.008226
v -0.030809 -0.026637 0.012972
v -0.030640 0.027868 0.013010
v 0.017219 -0.029934 0.010400
v -0.018580 0.030922 0.010380
v -0.019415 0.022067 0.018716
v 0.018055 0.021889 0.018764
v 0.017962 -0.021028 0.018737
v 0.029351 -0.026458 0.013140
v -0.019295 -0.020961 0.018763
v 0.027505 0.030751 0.009637
v 0.027415 -0.029877 0.009817
v -0.028696 0.030877 0.009666
v -0.001523 -0.029058 0.012785
v 0.004937 0.010406 0.020373
v 0.001387 -0.004401 0.020279
v 0.001152 -0.007960 0.020186
v 0.004820 -0.006085 0.020381
v 0.001411 0.008618 0.020277
f 37 33 1
f 39 37 1
f 2 39 1
f 5 3 4
f 5 4 6
f 7 5 6
f 10 8 9
f 10 9 11
f 12 22 13
f 14 12 13
f 14 13 15
f 29 14 15
f 30 10 16
f 7 5 17
f 24 109 25
f 107 4 19
f 107 18 4
f 20 111 110
f 20 113 111
f 20 21 113
f 119 107 19
f 25 109 19
f 117 119 19
f 102 20 110
f 102 110 24
f 111 115 114
f 116 20 117
f 20 116 21
f 111 112 110
f 110 109 24
f 20 108 120
f 20 18 108
f 20 120 118
f 110 112 109
f 113 115 111
f 112 111 114
f 107 108 18
f 107 120 108
f 120 107 119
f 116 117 19
f 118 120 117
f 21 116 19
f 115 21 19
f 112 114 19
f 114 115 19
f 109 112 19
f 8 23 9
f 16 11 9
f 25 26 102
f 25 27 26
f 25 15 27
f 23 8 11
f 46 22 15
f 46 15 25
f 16 23 11
f 102 26 9
f 22 27 13
f 15 13 27
f 18 4 101
f 100 101 4
f 32 14 26
f 32 29 14
f 29 28 12
f 28 29 32
f 10 8 16
f 30 31 8
f 32 26 16
f 12 28 14
f 36 100 18
f 2 34 33
f 54 34 2
f 36 4 100
f 35 36 18
f 17 4 36
f 6 4 17
f 55 4 3
f 55 3 6
f 55 6 17
f 33 35 1
f 2 1 35
f 33 34 35
f 38 37 2
f 3 36 5
f 7 36 3
f 40 41 23
f 42 40 23
f 43 23 9
f 43 42 23
f 44 46 45
f 23 46 44
f 46 47 48
f 46 25 47
f 105 25 47
f 19 25 105
f 49 105 99
f 19 105 49
f 4 106 49
f 4 19 106
f 50 4 49
f 55 4 50
f 55 50 51
f 52 55 53
f 54 55 52
f 56 57 35
f 56 35 2
f 58 2 54
f 58 56 2
f 59 58 54
f 60 35 18
f 61 60 18
f 61 18 20
f 103 61 20
f 103 20 102
f 62 102 9
f 62 103 102
f 54 7 38
f 54 17 7
f 34 38 37
f 34 54 38
f 37 34 35
f 39 37 35
f 36 39 35
f 17 36 5
f 28 22 27
f 14 28 27
f 27 26 14
f 16 26 9
f 30 16 23
f 30 23 31
f 23 46 22
f 23 28 31
f 23 22 28
f 29 15 22
f 12 29 22
f 30 10 11
f 30 11 8
f 3 7 6
f 37 2 33
f 35 57 63
f 35 63 64
f 35 64 65
f 35 65 66
f 35 66 67
f 35 67 60
f 69 68 54
f 70 69 54
f 71 70 54
f 72 71 54
f 52 72 54
f 73 53 55
f 74 73 55
f 75 74 55
f 76 75 55
f 77 76 55
f 78 77 55
f 79 78 55
f 51 79 55
f 80 48 46
f 81 80 46
f 82 81 46
f 83 82 46
f 84 83 46
f 85 84 46
f 86 85 46
f 45 86 46
f 9 62 87
f 9 87 88
f 9 88 89
f 9 89 90
f 9 90 91
f 9 91 43
f 92 44 23
f 41 92 23
f 31 8 92
f 28 31 92
f 32 28 47
f 102 47 93
f 25 102 93
f 103 93 47
f 24 93 103
f 24 102 32
f 24 32 103
f 100 50 94
f 101 100 94
f 18 101 94
f 18 100 50
f 18 50 104
f 18 94 104
f 36 7 50
f 2 38 39
f 39 36 61
f 36 50 61
f 102 47 32
f 16 8 32
f 41 92 40
f 92 45 28
f 39 56 57
f 39 57 63
f 39 63 64
f 39 64 65
f 39 65 66
f 38 56 39
f 38 58 56
f 44 45 92
f 39 66 67
f 99 95 96
f 39 67 60
f 104 50 61
f 59 58 38
f 47 95 99
f 38 97 59
f 38 68 98
f 38 98 97
f 38 69 68
f 38 70 69
f 71 70 38
f 72 71 38
f 52 72 38
f 103 47 99
f 103 99 49
f 103 49 104
f 103 104 61
f 61 39 60
f 53 52 38
f 53 38 7
f 73 53 7
f 74 73 7
f 75 74 7
f 76 75 7
f 77 76 7
f 51 7 50
f 78 77 7
f 79 78 7
f 79 7 51
f 62 32 103
f 8 32 62
f 8 62 87
f 8 87 88
f 8 88 89
f 8 89 90
f 8 90 91
f 43 8 91
f 49 94 104
f 28 48 47
f 49 50 94
f 28 80 48
f 81 80 28
f 82 81 28
f 83 82 28
f 84 83 28
f 42 8 43
f 85 84 28
f 86 85 28
f 45 86 28
f 96 95 49
f 40 8 42
f 92 8 40
f 55 54 17
f 24 93 25
f 106 95 49
f 105 47 95
f 105 95 106
f 105 99 96
f 105 96 106
f 19 96 49
f 106 96 19
f 115 113 21
f 117 20 118
f 117 119 120
f 97 59 54
f 98 97 54
f 68 98 54
f 122 121 139
f 122 139 143
f 123 121 124
f 123 140 121
f 124 122 143
f 125 123 124
f 125 140 123
f 131 132 130
f 131 129 132
f 130 129 131
f 121 136 137
f 121 135 136
f 124 121 137
f 121 122 135
f 124 137 135
f 122 124 135
f 136 137 135
f 132 171 133
f 138 132 133
f 133 130 138
f 131 132 138
f 131 171 132
f 171 131 138
f 138 130 171
f 144 139 121
f 144 121 140
f 125 169 144
f 139 144 170
f 143 169 125
f 169 170 144
f 143 125 124
f 125 144 140
f 142 149 147
f 142 147 152
f 142 150 149
f 146 143 159
f 142 167 150
f 146 159 151
f 146 151 152
f 150 143 146
f 145 146 152
f 149 150 147
f 150 169 143
f 147 146 145
f 147 150 146
f 147 145 152
f 167 169 150
f 159 153 156
f 158 157 156
f 158 156 155
f 159 154 158
f 157 155 160
f 158 154 160
f 155 158 160
f 159 157 160
f 159 158 157
f 163 164 162
f 167 165 163
f 162 167 163
f 167 164 165
f 167 161 164
f 164 161 162
f 164 165 166
f 165 166 161
f 148 165 161
f 152 141 142
f 126 134 127
f 126 127 141
f 126 141 152
f 168 126 129
f 168 129 130
f 171 152 151
f 133 171 151
f 128 171 130
f 126 152 171
f 126 171 128
f 126 128 129
f 156 151 159
f 155 168 151
f 155 151 156
f 154 168 155
f 157 155 153
f 157 153 156
f 162 139 170
f 162 126 139
f 134 126 162
f 154 153 160
f 126 168 154
f 126 154 139
f 159 160 153
f 143 139 154
f 159 143 154
f 163 164 166
f 163 166 148
f 165 163 148
f 167 162 170
f 169 167 170
f 167 148 161
f 141 167 142
f 141 148 167
f 127 166 148
f 127 148 141
f 127 162 166
f 134 162 127
f 151 168 130
f 151 130 133
f 154 155 153
f 162 161 166
f 132 129 128
f 130 132 128
f 176 175 172
f 176 172 199
f 174 209 173
f 173 209 175
f 209 199 172
f 175 209 172
f 173 217 177
f 174 173 177
f 174 177 178
f 176 174 178
f 175 179 173
f 181 188 182
f 181 182 184
f 181 184 185
f 181 209 188
f 183 174 189
f 183 189 185
f 188 209 186
f 186 174 183
f 182 188 186
f 180 183 185
f 182 186 184
f 186 209 174
f 184 183 180
f 184 186 183
f 184 180 185
f 195 191 193
f 194 191 192
f 194 190 191
f 193 192 195
f 174 197 195
f 196 191 197
f 174 195 196
f 195 197 191
f 194 196 197
f 194 174 196
f 201 198 200
f 209 201 199
f 209 198 201
f 200 198 199
f 203 202 200
f 201 200 202
f 187 201 202
f 208 210 204
f 185 204 181
f 207 208 204
f 207 204 185
f 205 207 206
f 205 206 211
f 222 185 212
f 212 185 189
f 206 222 214
f 207 185 222
f 207 222 206
f 193 189 174
f 193 205 189
f 197 205 193
f 196 191 192
f 196 192 195
f 199 207 176
f 202 199 198
f 208 207 199
f 207 205 197
f 207 197 176
f 194 197 190
f 174 176 197
f 199 200 203
f 199 203 201
f 209 187 202
f 209 202 198
f 204 209 181
f 204 203 209
f 210 202 203
f 210 203 204
f 210 199 202
f 208 199 210
f 189 205 211
f 189 211 212
f 193 174 194
f 193 194 192
f 190 193 191
f 197 193 190
f 175 176 179
f 203 201 187
f 203 187 209
f 212 211 214
f 213 211 206
f 214 213 206
f 177 176 178
f 177 215 176
f 215 179 176
f 216 179 215
f 217 179 216
f 217 216 177
f 173 179 217
f 218 213 214
f 218 211 213
f 214 211 218
f 215 220 221
f 215 219 220
f 216 215 221
f 215 177 219
f 177 216 219
f 216 221 219
f 220 221 219
f 213 222 212
f 223 213 212
f 212 214 223
f 218 213 223
f 218 222 213
f 223 222 218
f 214 222 223
f 326 365 229
f 230 344 231
f 232 230 231
f 233 329 234
f 235 233 234
f 235 234 343
f 237 236 238
f 241 239 240
f 241 240 242
f 243 244 245
f 248 247 361
f 249 225 250
f 254 252 253
f 255 256 257
f 258 255 257
f 260 259 261
f 262 260 261
f 263 336 264
f 269 267 268
f 271 342 270
f 271 270 272
f 273 271 272
f 275 276 372
f 279 260 264
f 279 264 268
f 252 279 268
f 252 268 280
f 281 252 280
f 237 282 244
f 283 237 244
f 283 244 284
f 247 283 284
f 285 364 286
f 297 285 286
f 294 363 287
f 288 294 287
f 289 276 340
f 289 340 290
f 372 289 290
f 372 290 367
f 292 369 291
f 292 291 293
f 306 294 295
f 305 295 288
f 338 369 296
f 370 338 296
f 274 370 296
f 274 296 292
f 297 308 364
f 337 308 297
f 299 227 316
f 308 285 346
f 302 329 274
f 228 373 304
f 305 287 306
f 316 326 227
f 243 245 307
f 370 302 274
f 308 301 337
f 243 307 309
f 283 307 245
f 310 291 278
f 310 302 370
f 311 303 312
f 313 303 311
f 345 308 346
f 314 310 278
f 315 228 304
f 232 306 307
f 247 307 283
f 283 243 309
f 318 308 269
f 248 307 247
f 248 230 232
f 248 232 307
f 299 228 315
f 319 230 248
f 320 308 318
f 344 306 232
f 315 316 299
f 237 283 309
f 254 318 267
f 252 254 267
f 241 309 317
f 254 320 318
f 241 237 309
f 239 241 317
f 247 230 319
f 321 311 295
f 317 237 239
f 252 267 250
f 273 247 271
f 279 252 250
f 273 230 247
f 322 321 295
f 322 295 306
f 281 320 254
f 324 302 310
f 325 324 310
f 235 323 237
f 342 271 323
f 236 237 317
f 258 320 281
f 255 258 281
f 326 322 306
f 371 341 324
f 263 260 279
f 266 279 249
f 266 263 279
f 327 260 263
f 333 263 266
f 333 336 263
f 336 260 327
f 235 236 317
f 233 235 317
f 372 341 371
f 372 315 341
f 235 342 323
f 328 320 255
f 293 233 317
f 328 255 260
f 275 333 265
f 262 328 260
f 346 332 311
f 346 311 321
f 293 343 233
f 335 334 332
f 339 336 333
f 339 333 275
f 286 335 332
f 285 332 346
f 339 260 336
f 339 328 262
f 339 259 260
f 339 262 259
f 340 275 330
f 340 330 331
f 291 338 293
f 329 304 373
f 315 329 302
f 315 302 341
f 338 278 370
f 330 371 331
f 311 305 295
f 337 332 285
f 338 306 273
f 338 273 342
f 338 342 343
f 338 343 293
f 343 342 235
f 273 306 344
f 273 344 230
f 306 274 373
f 306 373 300
f 306 300 326
f 373 274 329
f 308 275 249
f 308 249 250
f 308 250 269
f 269 250 267
f 249 275 265
f 249 265 266
f 372 308 316
f 372 316 315
f 316 308 345
f 326 345 346
f 326 346 322
f 227 298 350
f 334 364 354
f 229 365 351
f 250 268 299
f 304 347 329
f 257 254 356
f 245 353 309
f 244 245 309
f 246 353 245
f 225 250 299
f 226 229 351
f 268 250 251
f 268 356 253
f 280 356 268
f 286 354 332
f 264 268 251
f 280 257 356
f 357 314 310
f 264 251 225
f 355 312 287
f 325 357 310
f 304 348 347
f 280 256 257
f 284 353 246
f 244 284 246
f 232 363 353
f 311 352 312
f 231 232 353
f 358 329 293
f 266 225 265
f 266 264 225
f 248 353 284
f 248 231 353
f 284 361 248
f 328 258 256
f 328 257 258
f 266 336 264
f 344 363 232
f 319 231 248
f 319 344 231
f 364 334 346
f 359 330 357
f 240 309 317
f 240 244 309
f 242 244 240
f 298 229 226
f 328 256 280
f 313 352 355
f 360 361 284
f 290 341 357
f 282 244 242
f 282 242 239
f 290 225 341
f 360 319 361
f 362 329 358
f 290 265 225
f 290 357 330
f 360 344 319
f 350 229 298
f 261 280 264
f 313 355 363
f 304 349 348
f 240 282 239
f 367 333 265
f 272 360 323
f 259 261 264
f 367 265 290
f 365 360 272
f 365 344 360
f 270 272 323
f 261 328 280
f 366 328 261
f 322 313 363
f 314 362 358
f 238 323 282
f 238 282 236
f 275 330 359
f 236 282 240
f 366 336 266
f 366 333 367
f 366 266 333
f 366 264 327
f 366 327 336
f 290 275 359
f 366 259 264
f 365 322 363
f 365 363 344
f 340 290 359
f 368 323 238
f 301 354 286
f 352 287 312
f 268 350 227
f 365 268 346
f 365 346 322
f 225 329 362
f 225 362 341
f 370 314 358
f 370 358 291
f 224 349 304
f 277 310 291
f 234 368 236
f 268 364 346
f 234 236 240
f 277 314 370
f 343 368 234
f 343 323 368
f 343 270 323
f 329 300 365
f 268 269 301
f 268 301 364
f 293 234 240
f 329 270 343
f 329 365 270
f 253 301 269
f 299 268 227
f 351 365 300
f 293 329 234
f 347 300 329
f 257 301 253
f 225 299 224
f 334 311 313
f 334 332 311
f 254 257 253
f 320 257 328
f 337 297 285
f 308 285 364
f 338 274 292
f 338 292 369
f 305 288 294
f 306 305 294
f 324 314 302
f 357 314 324
f 314 362 302
f 362 341 302
f 357 341 324
f 278 291 370
f 370 277 310
f 335 286 337
f 337 364 332
f 286 364 337
f 364 354 332
f 303 312 305
f 355 352 311
f 334 321 346
f 334 313 321
f 313 322 321
f 307 309 353
f 317 293 240
f 277 338 278
f 277 291 338
f 278 277 314
f 325 371 324
f 325 357 371
f 357 331 371
f 357 359 331
f 340 359 331
f 367 340 275
f 339 366 367
f 275 339 367
f 339 328 366
f 320 308 301
f 320 301 257
f 354 337 335
f 354 301 337
f 335 354 334
f 303 352 313
f 352 305 303
f 352 287 305
f 287 363 306
f 292 293 358
f 296 292 358
f 369 296 358
f 369 358 291
f 276 372 367
f 276 367 340
f 305 355 311
f 312 355 305
f 290 371 275
f 290 330 371
f 295 287 355
f 295 288 287
f 295 355 363
f 294 295 363
f 297 286 301
f 364 297 301
f 307 353 363
f 306 307 363
f 247 284 360
f 271 360 323
f 271 247 360
f 237 323 282
f 255 281 280
f 260 255 280
f 260 280 264
f 371 372 289
f 275 371 289
f 275 289 276
f 338 306 274
f 275 308 372
f 273 272 365
f 342 273 365
f 342 365 270
f 318 269 253
f 267 318 253
f 267 253 268
f 327 263 264
f 262 261 366
f 259 262 366
f 320 258 256
f 255 320 256
f 281 254 356
f 252 281 356
f 252 356 253
f 279 250 251
f 279 251 225
f 249 279 225
f 247 319 361
f 283 245 246
f 243 283 246
f 243 246 244
f 237 241 242
f 237 242 239
f 235 237 238
f 235 238 368
f 235 368 236
f 233 343 329
f 316 326 229
f 316 229 350
f 316 350 268
f 268 316 345
f 268 326 345
f 268 365 326
f 315 225 224
f 304 315 224
f 225 329 315
f 373 228 348
f 373 348 300
f 228 299 224
f 227 326 226
f 224 228 349
f 326 226 351
f 348 300 347
f 349 228 348
f 326 351 300
f 227 298 226
f 424 388 469
f 377 378 383
f 379 377 383
f 380 379 383
f 381 415 411
f 381 411 382
f 383 381 382
f 385 413 384
f 385 384 386
f 387 385 386
f 389 388 390
f 408 405 391
f 392 408 391
f 393 392 391
f 394 390 395
f 387 384 396
f 402 485 403
f 482 406 398
f 482 397 406
f 399 487 486
f 399 490 487
f 399 489 490
f 403 485 398
f 494 482 398
f 477 399 486
f 477 486 402
f 487 400 488
f 492 491 494
f 491 492 489
f 489 400 490
f 399 491 489
f 487 484 486
f 486 485 402
f 399 483 493
f 399 397 483
f 399 493 374
f 399 374 491
f 486 484 485
f 490 400 487
f 484 487 488
f 482 483 397
f 494 374 493
f 492 494 398
f 489 492 398
f 400 489 398
f 484 488 398
f 488 400 398
f 485 484 398
f 403 376 477
f 403 393 391
f 403 405 376
f 403 391 405
f 404 388 395
f 425 409 405
f 425 393 403
f 425 405 393
f 477 376 401
f 477 401 390
f 397 406 407
f 473 407 406
f 376 393 392
f 389 388 401
f 409 408 393
f 409 392 408
f 394 389 401
f 409 393 376
f 394 410 389
f 424 388 410
f 375 473 397
f 412 411 383
f 433 412 383
f 375 406 473
f 382 375 397
f 384 406 375
f 413 406 384
f 396 386 384
f 396 413 386
f 414 406 413
f 414 413 396
f 382 411 412
f 385 375 387
f 413 375 385
f 417 375 413
f 417 413 387
f 383 381 416
f 418 404 388
f 418 419 404
f 420 418 388
f 421 388 390
f 421 420 388
f 404 424 422
f 422 425 423
f 424 425 422
f 425 426 427
f 425 403 426
f 480 403 426
f 398 403 480
f 428 480 476
f 398 480 428
f 406 481 428
f 406 398 481
f 429 406 428
f 414 406 429
f 414 429 430
f 383 433 431
f 431 414 432
f 433 434 414
f 433 414 431
f 435 436 382
f 435 382 383
f 437 435 383
f 378 437 383
f 438 382 397
f 439 438 397
f 439 397 399
f 478 439 399
f 478 399 477
f 440 477 390
f 440 478 477
f 396 417 387
f 433 417 415
f 433 396 417
f 412 433 415
f 381 415 412
f 412 382 416
f 412 416 381
f 375 416 382
f 384 375 387
f 405 376 392
f 390 401 394
f 394 395 404
f 410 394 404
f 410 404 424
f 424 425 409
f 405 409 392
f 408 393 405
f 389 390 395
f 410 389 395
f 410 395 388
f 413 387 386
f 415 383 411
f 382 436 441
f 382 441 442
f 382 442 443
f 382 443 444
f 382 444 445
f 382 445 438
f 446 380 383
f 447 446 383
f 448 447 383
f 449 448 383
f 431 449 383
f 450 432 414
f 451 450 414
f 452 451 414
f 453 452 414
f 454 453 414
f 455 454 414
f 456 455 414
f 430 456 414
f 457 427 425
f 458 457 425
f 459 458 425
f 460 459 425
f 461 460 425
f 462 461 425
f 463 462 425
f 423 463 425
f 390 440 464
f 390 464 465
f 390 465 466
f 390 466 467
f 390 467 468
f 390 468 421
f 469 422 404
f 419 469 404
f 388 401 469
f 409 424 469
f 376 409 426
f 376 426 470
f 477 426 471
f 403 477 471
f 478 471 426
f 402 471 478
f 402 477 470
f 402 470 478
f 473 429 472
f 407 473 472
f 397 407 472
f 397 473 429
f 397 429 479
f 397 472 479
f 375 417 429
f 383 415 416
f 416 375 439
f 375 429 439
f 477 426 470
f 376 401 470
f 419 469 418
f 469 423 409
f 416 435 436
f 416 436 441
f 416 441 442
f 416 442 443
f 416 443 444
f 415 435 416
f 415 437 435
f 422 423 469
f 416 444 445
f 476 474 475
f 416 445 438
f 479 429 439
f 378 437 415
f 426 474 476
f 415 377 378
f 415 380 379
f 415 379 377
f 415 446 380
f 415 447 446
f 448 447 415
f 449 448 415
f 431 449 415
f 478 426 476
f 478 476 428
f 478 428 479
f 478 479 439
f 439 416 438
f 432 431 415
f 432 415 417
f 450 432 417
f 451 450 417
f 452 451 417
f 453 452 417
f 454 453 417
f 430 417 429
f 455 454 417
f 456 455 417
f 456 417 430
f 440 470 478
f 401 470 440
f 401 440 464
f 401 464 465
f 401 465 466
f 401 466 467
f 401 467 468
f 421 401 468
f 428 472 479
f 409 427 426
f 428 429 472
f 409 457 427
f 458 457 409
f 459 458 409
f 460 459 409
f 461 460 409
f 420 401 421
f 462 461 409
f 463 462 409
f 423 463 409
f 475 474 428
f 418 401 420
f 469 401 418
f 396 434 433
f 434 396 414
f 402 471 403
f 481 474 428
f 480 426 474
f 480 474 481
f 480 476 475
f 480 475 481
f 398 475 428
f 481 475 398
f 493 482 483
f 494 491 374
f 493 482 494
f 496 533 495
f 497 495 520
f 498 533 496
f 533 520 495
f 496 495 497
f 498 496 501
f 498 501 499
f 498 499 500
f 509 507 504
f 509 504 505
f 509 527 507
f 527 508 507
f 503 498 518
f 527 526 508
f 503 518 530
f 503 530 505
f 508 498 503
f 502 503 505
f 507 508 504
f 508 533 498
f 504 503 502
f 504 508 503
f 504 502 505
f 526 533 508
f 512 511 513
f 514 512 513
f 515 511 514
f 515 510 511
f 516 514 512
f 517 512 510
f 518 510 516
f 516 510 512
f 515 516 517
f 515 517 510
f 515 518 516
f 526 506 519
f 520 526 519
f 520 519 521
f 506 522 519
f 506 520 522
f 522 520 521
f 522 519 525
f 522 525 523
f 521 522 523
f 521 523 524
f 525 523 520
f 506 525 520
f 531 532 528
f 531 528 509
f 531 509 505
f 529 531 534
f 535 505 530
f 546 505 535
f 531 505 546
f 531 546 534
f 514 530 518
f 513 529 530
f 513 530 514
f 510 529 513
f 517 512 511
f 517 511 514
f 516 517 514
f 531 529 500
f 520 531 500
f 532 531 520
f 529 510 500
f 498 500 510
f 518 498 510
f 521 524 525
f 519 521 525
f 533 526 520
f 527 525 526
f 528 524 525
f 528 525 527
f 528 520 524
f 532 520 528
f 528 527 509
f 530 547 535
f 530 529 534
f 530 534 547
f 514 518 515
f 510 513 511
f 525 506 526
f 520 523 524
f 547 534 538
f 537 534 536
f 538 537 536
f 546 538 536
f 500 497 520
f 546 536 534
f 540 539 500
f 540 500 499
f 539 497 500
f 499 541 540
f 497 539 541
f 501 497 541
f 501 541 499
f 496 497 501
f 542 537 538
f 542 534 537
f 538 534 542
f 539 544 545
f 539 543 544
f 541 539 545
f 539 540 543
f 541 545 543
f 540 541 543
f 544 545 543
f 537 546 535
f 547 537 535
f 542 537 547
f 542 546 537
f 547 546 542
f 538 546 547
f 550 584 548
f 552 548 549
f 551 584 550
f 584 549 548
f 551 550 554
f 551 554 553
f 552 551 553
f 550 548 555
f 557 562 559
f 557 559 560
f 557 563 562
f 558 551 571
f 557 578 563
f 558 571 582
f 558 582 560
f 563 578 558
f 559 563 558
f 556 558 560
f 562 563 559
f 558 584 551
f 559 558 556
f 559 556 560
f 578 584 558
f 568 565 566
f 571 565 567
f 571 566 565
f 569 567 568
f 565 569 568
f 571 564 569
f 569 564 565
f 565 564 570
f 571 569 570
f 578 561 572
f 574 578 573
f 573 578 572
f 561 575 572
f 561 574 575
f 575 574 573
f 573 575 576
f 573 576 577
f 578 577 575
f 576 578 575
f 561 576 574
f 560 579 557
f 581 585 579
f 581 579 560
f 580 581 587
f 597 560 588
f 588 560 582
f 581 560 597
f 581 597 590
f 581 590 587
f 568 582 571
f 566 580 582
f 566 582 568
f 564 580 566
f 570 565 567
f 569 570 567
f 581 580 552
f 574 552 549
f 574 581 552
f 583 581 574
f 585 581 583
f 564 566 570
f 580 564 552
f 571 570 566
f 551 552 564
f 571 551 564
f 572 577 575
f 572 573 577
f 578 574 549
f 584 578 549
f 579 578 557
f 585 577 578
f 585 578 579
f 585 574 577
f 583 574 585
f 582 580 587
f 582 587 588
f 568 571 567
f 578 576 561
f 574 576 577
f 589 586 587
f 590 589 587
f 548 552 555
f 591 552 553
f 591 555 552
f 592 555 591
f 554 592 553
f 550 592 554
f 550 555 592
f 593 589 590
f 593 586 589
f 590 586 593
f 590 588 586
f 588 587 586
f 591 553 596
f 591 596 595
f 592 591 595
f 592 595 594
f 553 592 594
f 553 594 596
f 596 595 594
f 589 597 588
f 598 589 588
f 593 589 598
f 593 597 589
f 598 597 593
f 590 597 598
f 588 590 598
f 599 600 601
f 600 599 601
f 603 602 604
f 602 603 604
f 606 607 605
f 606 605 608
f 607 606 608
f 605 607 608
f 611 609 610
f 610 609 612
f 611 610 612
f 609 611 612
f 613 615 616
f 614 613 616
f 615 614 616
f 613 614 615
f 617 619 620
f 618 617 620
f 619 618 620
f 619 617 618
f 621 623 624
f 622 621 624
f 623 622 624
f 622 623 621
f 626 625 628
f 627 626 628
f 625 627 628
f 625 626 627
f 646 642 629
f 634 646 629
f 634 629 630
f 649 632 630
f 649 630 631
f 650 649 631
f 648 631 633
f 639 648 633
f 639 633 634
f 647 639 634
f 640 378 377
f 640 379 380
f 640 377 379
f 636 41 647
f 635 62 87
f 635 87 88
f 41 636 40
f 635 88 89
f 635 89 90
f 635 90 91
f 43 635 91
f 80 48 637
f 81 80 637
f 44 45 637
f 44 637 636
f 82 81 637
f 83 82 637
f 84 83 637
f 636 635 43
f 42 636 43
f 85 84 637
f 86 85 637
f 45 86 637
f 40 636 42
f 631 432 638
f 45 648 639
f 431 638 432
f 44 45 639
f 44 639 647
f 45 432 648
f 648 432 631
f 640 638 431
f 44 636 647
f 640 380 446
f 640 446 447
f 640 447 448
f 640 448 449
f 640 449 431
f 42 641 647
f 42 43 641
f 40 42 647
f 41 40 647
f 642 436 435
f 642 435 437
f 642 437 378
f 640 642 378
f 87 62 634
f 88 634 641
f 88 87 634
f 89 88 641
f 90 89 641
f 91 90 641
f 43 91 641
f 642 438 445
f 642 445 444
f 642 444 443
f 642 443 442
f 642 442 441
f 642 441 436
f 45 432 450
f 86 450 451
f 86 45 450
f 85 451 452
f 85 86 451
f 84 452 453
f 84 85 452
f 83 84 453
f 82 454 455
f 82 453 454
f 82 83 453
f 81 455 456
f 81 82 455
f 80 456 430
f 80 81 456
f 48 80 430
f 643 438 445
f 643 445 444
f 378 644 437
f 643 444 443
f 643 443 442
f 377 644 378
f 441 643 442
f 436 643 441
f 379 644 377
f 645 456 430
f 380 644 379
f 455 456 645
f 446 644 380
f 447 644 446
f 454 455 645
f 431 432 645
f 431 645 644
f 448 644 447
f 449 431 644
f 449 644 448
f 453 454 645
f 452 453 645
f 435 644 643
f 435 643 436
f 451 452 645
f 450 451 645
f 432 450 645
f 437 644 435
f 647 646 634
f 647 641 646
f 638 640 630
f 638 630 631
f 640 629 642
f 640 630 629
f 637 430 48
f 637 645 430
f 642 438 643
f 62 634 635
f 649 650 645
f 644 649 645
f 637 633 651
f 637 650 633
f 636 637 651
f 636 651 652
f 637 645 650
f 632 649 644
f 636 635 634
f 636 634 652
f 642 643 644
f 632 642 644
f 633 650 631
f 652 633 634
f 652 651 633
f 632 630 642
f 634 630 642
f 646 641 642
f 641 634 642
f 653 655 654
f 653 654 655
f 673 669 656
f 673 656 657
f 661 673 657
f 676 659 657
f 676 657 658
f 677 676 658
f 675 658 660
f 666 675 660
f 666 660 661
f 674 666 661
f 667 59 97
f 667 98 68
f 667 97 98
f 663 419 674
f 662 440 464
f 662 464 465
f 419 663 418
f 662 465 466
f 662 466 467
f 662 467 468
f 421 662 468
f 457 427 664
f 458 457 664
f 422 423 664
f 422 664 663
f 459 458 664
f 460 459 664
f 461 460 664
f 663 662 421
f 420 663 421
f 462 461 664
f 463 462 664
f 423 463 664
f 418 663 420
f 658 53 665
f 423 675 666
f 52 665 53
f 422 423 666
f 422 666 674
f 423 53 675
f 675 53 658
f 667 665 52
f 422 663 674
f 667 68 69
f 667 69 70
f 667 70 71
f 667 71 72
f 667 72 52
f 420 668 674
f 420 421 668
f 418 420 674
f 419 418 674
f 667 57 56
f 667 669 57
f 667 56 58
f 667 58 59
f 464 440 661
f 465 661 668
f 465 464 661
f 466 465 668
f 467 466 668
f 468 467 668
f 421 468 668
f 669 60 67
f 669 67 66
f 669 66 65
f 669 65 64
f 669 64 63
f 669 63 57
f 423 53 73
f 463 73 74
f 463 423 73
f 462 74 75
f 462 463 74
f 461 75 76
f 461 462 75
f 460 461 76
f 459 77 78
f 459 76 77
f 459 460 76
f 458 78 79
f 458 459 78
f 457 79 51
f 457 458 79
f 427 457 51
f 670 60 67
f 670 67 66
f 59 671 58
f 670 66 65
f 670 65 64
f 97 671 59
f 63 670 64
f 57 670 63
f 98 671 97
f 672 79 51
f 68 671 98
f 78 79 672
f 69 671 68
f 70 671 69
f 77 78 672
f 52 53 672
f 52 672 671
f 71 671 70
f 72 52 671
f 72 671 71
f 76 77 672
f 75 76 672
f 56 671 670
f 56 670 57
f 74 75 672
f 73 74 672
f 53 73 672
f 58 671 56
f 674 673 661
f 674 668 673
f 665 667 657
f 665 657 658
f 669 667 656
f 667 657 656
f 664 51 427
f 664 672 51
f 669 60 670
f 440 661 662
f 677 672 676
f 671 676 672
f 664 660 678
f 664 677 660
f 663 664 678
f 663 678 679
f 664 672 677
f 659 676 671
f 663 662 661
f 663 661 679
f 669 670 671
f 659 669 671
f 660 677 658
f 679 660 661
f 679 678 660
f 659 657 669
f 661 657 669
f 673 668 669
f 668 661 669
f 680 682 681
f 680 681 682
f 710 684 714
f 720 685 686
f 720 717 685
f 721 691 692
f 721 715 691
f 688 687 693
f 706 705 694
f 707 695 696
f 689 690 713
f 697 689 690
f 708 697 690
f 698 708 707
f 698 697 708
f 699 698 707
f 698 700 701
f 699 698 701
f 703 700 702
f 734 702 700
f 733 702 734
f 733 703 702
f 704 733 732
f 704 703 733
f 704 700 703
f 698 734 700
f 731 734 698
f 735 734 731
f 735 732 734
f 683 735 731
f 683 731 698
f 697 732 735
f 697 704 732
f 697 735 683
f 697 683 698
f 733 734 732
f 697 710 709
f 697 709 704
f 688 687 700
f 730 688 700
f 704 730 700
f 705 730 704
f 706 705 704
f 692 708 691
f 690 713 692
f 708 690 692
f 707 691 696
f 707 708 691
f 688 693 686
f 730 688 686
f 730 685 686
f 705 685 694
f 705 730 685
f 687 701 700
f 704 709 706
f 707 699 695
f 697 689 710
f 711 695 699
f 711 699 701
f 711 701 712
f 687 712 701
f 712 687 693
f 684 689 713
f 689 684 710
f 710 714 709
f 694 706 714
f 709 714 706
f 715 716 727
f 712 725 728
f 716 712 725
f 711 712 716
f 711 727 716
f 711 695 727
f 696 695 727
f 693 712 728
f 684 713 729
f 684 719 729
f 684 718 719
f 684 714 718
f 714 717 718
f 714 694 717
f 720 728 693
f 715 727 696
f 729 721 713
f 721 722 719
f 715 722 721
f 723 722 715
f 716 723 715
f 723 724 725
f 716 723 725
f 723 726 724
f 722 726 723
f 722 718 726
f 722 719 718
f 720 725 724
f 726 717 720
f 726 720 724
f 718 717 726
f 721 713 692
f 715 691 696
f 720 693 686
f 717 685 694
f 728 725 720
f 729 719 721
